<svg xmlns="http://www.w3.org/2000/svg" viewBox="0 0 311.62 65.7"><defs><style>.cls-1,.cls-2{fill:#005bac;}.cls-1{fill-rule:evenodd;}</style></defs><g id="图层_2" data-name="图层 2"><g id="图层_1-2" data-name="图层 1"><path class="cls-1" d="M28.39,50l.72-.35h.07v2.5a1.81,1.81,0,0,0,0,.32.2.2,0,0,0,.09.09,1,1,0,0,0,.27,0v.08H28.44V52.6a.94.94,0,0,0,.27,0,.24.24,0,0,0,.09-.08,1.78,1.78,0,0,0,0-.33v-1.6a3,3,0,0,0,0-.41.14.14,0,0,0-.06-.1.11.11,0,0,0-.09,0,.53.53,0,0,0-.23.07Z"/><path class="cls-1" d="M30.44,52.71v-.08A1.07,1.07,0,0,0,31,52.5a1.31,1.31,0,0,0,.47-.45,1.81,1.81,0,0,0,.33-.7,1.17,1.17,0,0,1-.63.22.68.68,0,0,1-.53-.24.91.91,0,0,1-.23-.64,1.12,1.12,0,0,1,.23-.69.83.83,0,0,1,1.33-.07,1.37,1.37,0,0,1,.32.92,1.74,1.74,0,0,1-.25.92,2,2,0,0,1-.67.71,1.36,1.36,0,0,1-.77.23Zm1.36-1.52a2.93,2.93,0,0,0,0-.45,1.51,1.51,0,0,0-.07-.46.86.86,0,0,0-.21-.38.41.41,0,0,0-.3-.13.45.45,0,0,0-.34.17.79.79,0,0,0-.15.52,1.22,1.22,0,0,0,.2.73.42.42,0,0,0,.35.18.75.75,0,0,0,.24,0A1,1,0,0,0,31.8,51.19Z"/><path class="cls-1" d="M34.74,49.71l-.17.37h-.9l-.19.4a1.62,1.62,0,0,1,.92.43,1,1,0,0,1,.29.7,1,1,0,0,1-.1.44,1,1,0,0,1-.24.33,1,1,0,0,1-.32.23,1.2,1.2,0,0,1-.52.12.7.7,0,0,1-.39-.09.26.26,0,0,1-.12-.2.16.16,0,0,1,0-.11.21.21,0,0,1,.13,0l.1,0,.15.09a.54.54,0,0,0,.33.11.61.61,0,0,0,.45-.19.64.64,0,0,0,.19-.47.78.78,0,0,0-.17-.5,1,1,0,0,0-.48-.36,1.79,1.79,0,0,0-.65-.12l.57-1.15Z"/><path class="cls-1" d="M37.31,52.11l-.21.57H35.35V52.6a8.7,8.7,0,0,0,1.09-1.15,1.45,1.45,0,0,0,.31-.82.61.61,0,0,0-.17-.46.51.51,0,0,0-.41-.18.7.7,0,0,0-.4.12.75.75,0,0,0-.25.38h-.09a1,1,0,0,1,.28-.62.8.8,0,0,1,.57-.22.89.89,0,0,1,.61.23.75.75,0,0,1,.24.55,1.06,1.06,0,0,1-.11.45,2.83,2.83,0,0,1-.52.75c-.37.4-.59.64-.68.72h.77l.33,0a.56.56,0,0,0,.18-.07.64.64,0,0,0,.13-.15Z"/><path class="cls-1" d="M60.14,26.09c-.14,0-.29,0-.3-.12-.31-.13-.68-1.3-.7-1.59s.26-.47.12-.46a.6.6,0,0,0-.17-.28.55.55,0,0,1-.18-.44c-.15,0-.15,0-.31-.12l-.15-.14c-.16-.14-.17-.29-.33-.43,0-.14-.16-.13-.17-.28a.32.32,0,0,1-.31-.28c-.15,0-.77-.39-.78-.54-.19-.58,1.3-.54,1.46-.25s-.27.32-.25.61c.15,0,.14-.15.28-.17s.29-.16.58-.18l.14-.16a.48.48,0,0,0,.28-.17,1.12,1.12,0,0,1,.57-.34.15.15,0,0,1,.14-.16c.16.14.16.14.17.29a1.21,1.21,0,0,1-.85.65c-.29,0-.43.18-.72.2a.15.15,0,0,1-.14.16s-.13.16,0,.15a.15.15,0,0,0,.16.14.53.53,0,0,1,.43-.18l.3,0c0-.15.13-.16.28-.17s.14-.16.28-.17.14-.16.29-.17.45.12.31.28a.3.3,0,0,1-.27.31l-.3,0c0,.15-.13.16-.28.17l-.29,0h-.15a.52.52,0,0,1-.29.17.14.14,0,0,0-.13.16H59c.15,0,.31.13.46.12a.48.48,0,0,1,.28-.17c.16.14,0,.3.17.29s.16.13.15,0a.52.52,0,0,1-.17-.29c0-.15.28-.17.43-.18l.14-.16h.14a.55.55,0,0,0,.18.44c.31.12.72-.35.9.08l0,.45c-.14.16-.28.31-.58.19s0-.3-.32-.28h-.14c0,.15-.14.16-.13.31s-.45-.12-.6-.11l-.3,0,0,.15h-.15c-.14.16-.12.45.18.43.14,0,.13-.15.12-.3H60c.16.13.18.43.47.41a1.08,1.08,0,0,1,.26-.61c.29,0,.19.58.49.71l.28-.17c.15,0,.13-.31.13-.31h.15a.14.14,0,0,0,.15.14l.48.41,0,.45v.14c-.27.32-.59.05-.89-.08l-.45,0a.54.54,0,0,1-.45-.12l-.44,0c-.15,0-.15,0-.3-.13v.3c.15.14.31.28.32.42a.66.66,0,0,1,.05.74A.15.15,0,0,0,60.14,26.09Z"/><path class="cls-1" d="M58,25.5c-.45-.12-.31-.28-.48-.57,0-.14-.16-.13-.17-.28a.48.48,0,0,0-.16-.29c-.15,0-.44.18-.58.19l-.14.16-.3,0c-.28.17-1.34-.2-1.36-.5a2.73,2.73,0,0,1,.66-1.09s.14-.16.15,0a.55.55,0,0,1,.18.44c0,.14,0,.14.16.13.16.29.17.44.46.27l.44,0c.12-.46-.66-1-.56-1.6.15,0,.14-.16.29-.17a.52.52,0,0,1,.17.29c.14,0,.15.14.16.28s.19.59.2.73c.16.14.44,0,.59,0l.3,0-.16-.14c-.16-.13-.17-.28-.32-.27,0-.3,0-.59.26-.61l.15.13a.9.9,0,0,0,.19.59c.16.13.17.28.33.42s.31.28.46.27.19.58,0,.74l-.29,0c0-.15-.16-.14-.17-.29a4.58,4.58,0,0,0-.77-.39c-.12.3.19.58.36.86a.47.47,0,0,0,.17.29.15.15,0,0,1-.14.16C58.17,25.34,58,25.35,58,25.5Z"/><path class="cls-1" d="M54.15,19.31c-.3,0-.58-.32-.72-.62a.31.31,0,0,1-.29-.3l-.28-.31v-.14c0-.15,0-.3,0-.45s0-.59,0-.74.19-1.18.19-1.18c-.15-.16-.45,0-.6.13l-.44,0a.67.67,0,0,1-.74,0,1,1,0,0,1-.72-.61c0-.15-.14-.16-.14-.3-.14-.31.31-.29.45-.29l.43.46a1.68,1.68,0,0,0,1.48-.11v-.14c0-.15,0-.15-.15-.16a2.47,2.47,0,0,0-.57-.76L52,13.6v-.29s0-.15.15-.15a.28.28,0,0,1,.45-.13c.15,0,.14.15.29.3l.14.15.29.31h.29c.14.15.14.3.43.31s.61-.43.61-.58c.16-.29.17-.59.61-.58,0-.14.15-.14.15-.14.14.15.14.15.29.16a.56.56,0,0,0,.14.45c0,.14.14.15.13.3v.15a.75.75,0,0,1-.75.57c-.15,0-.3,0-.3.14-.3.14.28.3.28.3.3,0,.73.32.58.61h0c-.15.15,0,.3-.16.44s-.45,0-.59-.16a.53.53,0,0,0-.29-.16c0-.15-.43-.31-.59-.16a.48.48,0,0,0-.15.29c-.16.29,0,.89,0,1.33.14.16,0,.3.13.45,0,.45,0,.75,0,1.19a.53.53,0,0,1,.13.45Z"/><path class="cls-1" d="M48,13.26a3,3,0,0,1-1.83-.82c-.13-.16-.24-.48-.37-.64a6.4,6.4,0,0,0-.41-1.54v-.15c-.14,0-.13-.17-.27-.18a.82.82,0,0,1-.79.35,2.45,2.45,0,0,1-1.46-.17c-.13-.17-.28-.18-.26-.33a.48.48,0,0,1,.18-.28c.15,0,.42.2.57.22a2.85,2.85,0,0,0,1.22-.31c.17-.13-.22-.62-.2-.77-.15,0,0-.29.2-.42s1,.56,1.17.14.07-.59.09-.74-.39-.49-.06-.75l.29,0a5.42,5.42,0,0,0,.71.23l.59.07c.29,0,.73.09.86.25s.13.17.11.32-.19.42-.34.4h-.15V8.3c-.15,0-.46.1-.61.08s-.27-.18-.44-.05l0,.15a.15.15,0,0,0,.13.16c.28.18.72.24.83.55.26.33-.2.42-.34.41-.46.09-.87-.26-1.19,0-.15,0-.06.45.09.46.11.32.08.61.21.78a1.47,1.47,0,0,0,.49.8,2.61,2.61,0,0,0,.78,1c0,.15.27.18.26.33l.13.16A.16.16,0,0,0,48,13.26Z"/><path class="cls-1" d="M27.12,8.88c-.3,0-.44,0-.44-.15-.15-.59.29-.59.59-.59a1.11,1.11,0,0,0,.59-.3A.15.15,0,0,0,28,7.69c0-.15-.3-.3-.45-.44V7s-.14-.15,0-.15.15-.15.3-.15c0-.15.15-.15.29-.3s.15-.29.3-.44c.15-.3.15-.59.29-.89a.55.55,0,0,1,.45-.15.68.68,0,0,0,.44-.45.14.14,0,0,0-.15-.14.56.56,0,0,1-.44.14c-.15.15-.3.15-.44.3a.46.46,0,0,0-.3.15c-.15,0-.29.15-.59.3s-.59.29-.74.44a.15.15,0,0,0-.15.15l-.44.45h-.15l-.14-.15a.78.78,0,0,1-.3-.6c0-.29.59-1,.89-1,.14-.14.29.15.14.15v.3c.15.15.89-.3.89-.3s.15-.15.3-.15c-.3,0-.3-.29-.45-.44a.48.48,0,0,0-.29-.15.15.15,0,0,0-.15-.15c-.15-.15.3-.29.44-.44a1.57,1.57,0,0,0,.74-.15c.15,0,.3.15.44.3s.3.44.15.59a.15.15,0,0,1-.15.15A1.3,1.3,0,0,0,29.48,4h.3c.14,0,.29-.15.44-.15s.44.15.59.3.29.29.29.44c-.29.15-.29.3-.59.3h-.59c-.14.15-.14.15-.29.15h-.15c-.15,0,0,.15,0,.3v.14c-.15.15-.29.3-.44.3-.3.15-.44.45-.59.59l-.15.15c.15,0,.89-.29,1-.15a.82.82,0,0,1-.44.75h-.15c-.14.15,0,.15,0,.29l-.14.15c.44,0,1-.29,1.32-.15s.3.15.45.3c0,.15,0,.45-.15.45s-.3,0-.44,0-.3.14-.59.14-.3.15-.45.15H28.3c-.15,0-.15.15-.29.15s-.3.15-.45.15A.52.52,0,0,1,27.12,8.88Z"/><path class="cls-1" d="M27.71,6.21h-.29c0-.15-.15-.45,0-.6s.29,0,.44,0l.29-.15v.15c0,.15,0,.15-.14.15v.3C27.86,6.21,27.86,6.21,27.71,6.21Z"/><polygon class="cls-1" points="29.81 17.36 29.06 21.23 24.96 21.89 29 22.76 29.69 26.72 30.5 22.69 34.38 22.04 30.47 21.32 29.81 17.36"/><path class="cls-1" d="M8.9,26.78c-.15,0-.3-.15-.45-.15-.14.15-.29,0-.29-.15-.15-.15.15-.3.15-.44s-.15-.75-.15-.9c-.15-.14-.3-.29-.44-.29-.59-.6-.59.59-1.18.44s0-.89-.15-1c-.3-.44-.74-.14-1-.44s.15-1,.45-1.19.59,0,.74,0a1.18,1.18,0,0,1,.44.3c.15.15.29.3.44.3.3.29.74.44,1,.74,0,.15.15.15.3.29v.45c0,.15.15.3.15.44a1.2,1.2,0,0,1,.14.6C9.19,26,9.34,26.48,8.9,26.78Z"/><path class="cls-1" d="M9.19,22.62H8.9a2.09,2.09,0,0,0-.89-.3c0-.14-.15-.14-.15-.14s-.44-.15-.59-.3l-.44-.45H6.54A.67.67,0,0,1,5.8,21c-.15-.15,0-.45,0-.6s.29-.14.44-.29c.44,0,.44.59.74.59.15,0,.15-.15.15-.3v-.14a.47.47,0,0,1,.44-.45.43.43,0,0,1,.29.15v.15c.15.29,0,.59,0,.74s-.14.15-.14.3l.29.29a.15.15,0,0,1,.15.15,1.11,1.11,0,0,0,.59.3H9a.55.55,0,0,0,.15-.45c0-.29.15-.44.15-.59a.48.48,0,0,0,.29-.15c.15-.15.3,0,.45,0s.29.15.29.3c0,.44-.59,1.19-.74,1.48C9.49,22.47,9.19,22.47,9.19,22.62Z"/><path class="cls-1" d="M12.6,18.93h-.29c-.15-.15-.59-.6-.44-.74s.44,0,.44-.15c0,0,.29-.3.29-.15v.3C12.75,18.48,12.9,18.78,12.6,18.93Z"/><path class="cls-1" d="M14.52,15.66h-.29c-.15,0-.15,0-.3-.15h-.44l-.15-.14a1.46,1.46,0,0,1,1.18-.89c0,.14.15.14.15.14.15.15.29.6.15.75A.32.32,0,0,1,14.52,15.66Z"/><path class="cls-1" d="M9.8,16.41a.46.46,0,0,1-.3-.15.14.14,0,0,1-.14-.15c-.15-.3.29-.45.44-.6a1.2,1.2,0,0,1,.29-.59c0-.15.15-.3.15-.44a.28.28,0,0,0,0-.45h-.15c-.14.15-.59.3-.59-.15v-.44c.15,0,.3-.15.45-.3s.14-.15.29-.3.59.15.59.45c.3,0,.3-.3.45-.3l.14-.15c.15-.15.74-.89.89-.59a.15.15,0,0,1,.15.15c-.15.15-.3.29-.3.44-.15.15-.29.15-.44.3-.3.44-.74.74-.89,1.19-.15.29-.15.44-.29.59v.3a1.11,1.11,0,0,0-.3.59c-.15.15,0,.3-.15.45C10.09,16.41,10,16.41,9.8,16.41Z"/><path class="cls-1" d="M13.93,17.44h-.29c-.15,0-.74,0-.74-.14s.29-.15.29-.3v-.15c0-.15-.44-.44-.59-.44s-.29.29-.44.29c-.29.15-1.18-.74-1.18-.89a1.55,1.55,0,0,0,.3-.74c.14-.15.14-.3.29-.59a.52.52,0,0,0,.15-.3c.15-.15.29-.15.29-.3.15-.15.3-.44.45-.3h.14c.15,0,.15,0,.15.15a1.63,1.63,0,0,1-.15.75v.29c0,.15.3.15.3.45v.15a.14.14,0,0,1-.15.14,5.92,5.92,0,0,1,1,.9c0,.14.15.14.15.14a.9.9,0,0,1,.15.6.48.48,0,0,1-.15.29Zm-2.06-1.63a6.64,6.64,0,0,0,.14-.74h-.14v0C11.72,15.22,11.42,15.66,11.87,15.81Z"/><path class="cls-1" d="M19.05,8.63l-.15-.15c-.15-.3.15-.45.29-.6a.48.48,0,0,1,.15-.29c0-.3-.44-.15-.44-.3s.15-.59.15-.74a1.15,1.15,0,0,0,.59-.3c.14-.15.59,0,.59.3V7h0c.14.15.59-.59.88-.44,0,.15,0,.29-.15.29a.66.66,0,0,1-.44.45,1.18,1.18,0,0,0-.44.3c-.15,0-.15.14-.3.14A2.16,2.16,0,0,1,19.05,8.63Z"/><path class="cls-1" d="M18.31,12.48c-.59-.14-.45-1-.74-1l-.15.15a.52.52,0,0,0-.15.3L17,12c-.3,0-.3-.3-.3-.45s0-.29.15-.29c0-.15.15-.15.3-.15a1.2,1.2,0,0,0,.29-.59c0-.15,0-.15-.15-.3a1.19,1.19,0,0,0-.14-.75c-.15-.14-.3-.14-.3-.29s-.29-.15-.29-.3.14-.44.14-.59c.15-.3-.14-.89.15-1s.15-.15.3-.15.29-.15.44-.15a.52.52,0,0,0,.29.15c0,.15.15.3,0,.59,0,.15-.44.45-.59.6-.14,0-.14.15-.29.15,0,.15-.15.15-.15.29a.15.15,0,0,0,.15.15c.15.15.15.15.29.15v-.3c0-.14.15-.29.15-.44a.54.54,0,0,1,.44-.15c.45-.15.59.45.74.74v.3c.15.29.3.44.3.74a.55.55,0,0,1,.15.45A2.27,2.27,0,0,1,19.64,12c0,.15-.3.15-.3.15-.15-.15-.15-.3-.29-.45s-.45-.3-.6-.59A.15.15,0,0,1,18.6,11l.3.3h.15c0-.15-.15-.6-.3-.6v-.14l-.15-.15c-.15.15-.15.15-.15.29l-.29.3v.3c0,.29.29.89.15,1.18Zm-.45-2.37V10c0-.15-.29-.45,0-.45h.3c0-.14,0-.29-.15-.29,0-.15-.29-.45-.29-.3-.15,0-.15.15-.15.3v.44C17.57,9.81,17.72,10.11,17.86,10.11Z"/><path class="cls-1" d="M20.08,11.3a.52.52,0,0,1-.3-.15v-.3c0-.29-.14-.44-.14-.59V9.37a1.51,1.51,0,0,0-.15-.45.15.15,0,0,0,.15-.15c.14,0,.29-.14.44-.14.15-.3.15-.75.44-.75.59-.29.3.45.44.75a.82.82,0,0,0,.45.74.14.14,0,0,0,.14.14c.15.15.89,0,.89-.14s-.15-.45-.15-.6V8.63s.15,0,.15.14.15.15.29.3l.45.44c0,.15.15.3,0,.45s-.15.15-.3.3a.43.43,0,0,0-.29.15c-.3,0-1.18,0-1.48-.3-.15-.3-.29-.6-.44-.89s-.15-.3-.3-.3h-.14c-.3.3,0,.74,0,1a1.44,1.44,0,0,1-.15,1.34Zm-.15-1V9.51h-.15v.15A.9.9,0,0,0,19.93,10.26Z"/><path class="cls-1" d="M39,5c-.29,0-.74-.3-.74-.59s0-.15.15-.15.15-.15.3-.15h.73a.15.15,0,0,0,.15.15C39.77,4.56,39.33,4.85,39,5Z"/><path class="cls-1" d="M35.78,4.26h-.14a.77.77,0,0,1,.29-.6c.15-.14.15-.14.15-.29s.29-.3.44-.3a.55.55,0,0,1,.45.15s.29,0,.29.15.15.15.15.29c-.15.6-.59.3-1,.3h-.14C36.08,4.11,35.93,4.26,35.78,4.26Z"/><path class="cls-1" d="M39.47,9a1.15,1.15,0,0,1-.59-.3,1.23,1.23,0,0,1-.59-.89c0-.29,0-.89.15-1V6.63h-.15a.43.43,0,0,0-.29.15c-.15.3-.3.45-.44.75-.15,0-.15.14-.3.29a.53.53,0,0,1-.44.15c-.15,0-.3,0-.3-.15-.15-.15.45-.29.59-.29V7.38c.15-.3.3-.45.45-.75,0-.14-.15-.44,0-.59h.14c.3,0,.3.3.59.3s.3-.3.59-.3.3,0,.3.3c0,0-.3.15-.3.29a2.26,2.26,0,0,0-.29.9c0,.14,0,.14.15.29s.44.45.59.3.14-.3.29-.45h.15l.15.15s0,.89-.15.89S39.62,8.86,39.47,9Z"/><path class="cls-1" d="M37.56,5.74h-.3l-.15-.15V5.45c.15,0,.15,0,.15-.15h1.62c.3,0,.45-.15.59-.15.15-.15.15-.15.3-.15h.15a.29.29,0,0,1,.14.45c-.14,0-.44.14-.59.14h-.73a.9.9,0,0,1-.6.15h-.58Z"/><path class="cls-1" d="M35.93,8.42h-.15c-.14-.15-.44-1.19-.14-1.19h0l.14.3c.15-.15.3-.75.15-.9a3.72,3.72,0,0,0-.74.3c-.29.15-.59.89-.88.89V7.38c.15-.15.29-.15.44-.45-.15-.15-.29,0-.44,0h-.15c-.29-.15,0-.74.15-.89s.29.15.44.15h.3A.14.14,0,0,0,35.19,6a1.11,1.11,0,0,0,.15-.74c.15-.15.15-.45.3-.6s0-.14.14-.14,0,.44,0,.74h.3l.15.15h.14L36.52,5a.72.72,0,0,0-.44-.15V4.7l.15-.14c.29,0,.59-.15.74.14V5l-.15.15c0,.15-.15.44-.15.59a.32.32,0,0,0-.3.3h.15a.15.15,0,0,1,.15.15v.15c-.15.15-.3.15-.3.29v.3c0,.15-.14.3-.14.45a1.25,1.25,0,0,1-.3,1Zm-.15-2.23v-.6h-.14a.55.55,0,0,1-.15.45v.15Z"/><path class="cls-1" d="M30.15,30.68a16,16,0,0,0-4-.71l-.05-.22,2.25-1V29l-1.75.8a28.41,28.41,0,0,1,3.42.64A1.16,1.16,0,0,1,30.15,30.68Z"/><polygon class="cls-1" points="42.35 22.24 47.88 19.7 48.02 19.88 28.92 48.07 28.73 47.95 32.13 38.02 32.41 37.6 29.3 47.08 47.53 20.11 42.06 22.67 42.35 22.24"/><path class="cls-1" d="M47.71,36.59,47.28,35H38.21l-1.1,1.63ZM32.82,35H30.05c-.13.48-.33,1-.5,1.61h2.87c.16-.58.3-1.12.4-1.6Zm-3.32,0L16.37,35l-.44,1.61,13.1,0C29.18,36.07,29.36,35.5,29.5,34.94Z"/><path class="cls-1" d="M15.74,32.26c0-4.58,5.55-8.39,12.92-9.25a9.77,9.77,0,0,0-6,11.32H16.13a5.67,5.67,0,0,1-.39-2.07Zm7,2.68a9.37,9.37,0,0,0,.66,1.64H17.52a8,8,0,0,1-1.15-1.64Zm.9,2.09a4.86,4.86,0,0,0,.33.54H18.53c-.2-.17-.4-.35-.59-.54Zm.65,1A9.66,9.66,0,0,0,26,39.72H22A14.67,14.67,0,0,1,19.09,38Zm2.2,2.15a9.85,9.85,0,0,0,1.25.75l-.16.45a22.89,22.89,0,0,1-4.58-1.2Zm1.64.92a10.16,10.16,0,0,0,1.43.52c-.51,0-1.06-.1-1.55-.17,0-.11.08-.24.12-.35Zm7.65-18a22.59,22.59,0,0,1,3.75.87l-1.31.6a9.73,9.73,0,0,0-2.44-1.47Zm8.43,3.14c2.3,1.63,3.67,3.72,3.67,6a5.88,5.88,0,0,1-.45,2.23H41.54a9.91,9.91,0,0,0,.08-4.32l2.64-3.91Zm3,8.68a7.83,7.83,0,0,1-1.12,1.64H40.77a10.18,10.18,0,0,0,.65-1.64ZM45.73,37c-.19.19-.39.37-.59.54h-5c.12-.17.23-.35.34-.54Zm-1.15,1a14.67,14.67,0,0,1-2.89,1.7H38.26A10,10,0,0,0,39.88,38Zm-4,2.15a23.9,23.9,0,0,1-5.74,1.36,9.64,9.64,0,0,0,2.79-1.36Z"/><path class="cls-1" d="M44.79,18,25.18,27.44a10.2,10.2,0,0,1,3.7,1h0a3,3,0,0,1,1.79,2.73.22.22,0,0,1,0,.08h0v0c-.19,3.48-4.38,15.3-4.38,15.3L44.79,18Zm-14.1,13.2a.22.22,0,0,1,0,.08h0Z"/><path class="cls-1" d="M47.82,38l.72,1.69H35L36.15,38Zm-16.1,1.69h-.54l1-1.7h.15c-.18.55-.36,1.12-.56,1.7Zm-.95,0L31.87,38l-2.75,0c-.16.53-.31,1.08-.51,1.68Zm-2.6,0H15.62l.36-1,0,0,.19-.62H28.65C28.46,38.62,28.36,39.19,28.17,39.72Z"/><path class="cls-1" d="M32.85,10.57A22.28,22.28,0,1,1,10.57,32.85,22.32,22.32,0,0,1,32.85,10.57Zm0,.82A21.46,21.46,0,1,0,54.3,32.85,21.5,21.5,0,0,0,32.85,11.39Z"/><path class="cls-1" d="M32.85,0A32.85,32.85,0,1,1,0,32.85,32.92,32.92,0,0,1,32.85,0Zm0,.83a32,32,0,1,0,32,32A32.08,32.08,0,0,0,32.85.83Z"/><path class="cls-1" d="M57.86,40.59l.24-.71.06,0,0,0a.55.55,0,0,0,0,.13.34.34,0,0,0,0,.17,1.45,1.45,0,0,0,.15.23l.59.77.51.18a.51.51,0,0,0,.24,0,.27.27,0,0,0,.13-.16l0-.07.05,0-.3.87,0,0,0-.07a.22.22,0,0,0,0-.21s-.09-.07-.2-.11l-.48-.17-1,.26-.24.07a.49.49,0,0,0-.14.11.39.39,0,0,0,0,.09l-.06,0,.31-.88.05,0v0a.39.39,0,0,0,0,.15.12.12,0,0,0,.08.09.51.51,0,0,0,.23,0l.79-.2-.48-.62a.65.65,0,0,0-.17-.17.14.14,0,0,0-.09,0l-.07,0-.06.12Z"/><path class="cls-1" d="M56.5,43.89l.46.22,0,0a.4.4,0,0,0-.19,0,.27.27,0,0,0-.18.05.4.4,0,0,0-.13.17l-.14.27,1.44.76a.38.38,0,0,0,.24.08.24.24,0,0,0,.14-.14l0-.06,0,0-.41.82-.05,0,0-.07a.23.23,0,0,0,0-.21.39.39,0,0,0-.19-.14l-1.44-.76-.12.23a.8.8,0,0,0-.08.2.3.3,0,0,0,0,.18.46.46,0,0,0,.17.17l0,.06-.43-.26Z"/><path class="cls-1" d="M55.93,48.48l0,0-.54.75,0,0,0-.06a.23.23,0,0,0,0-.2s-.07-.1-.17-.18L54.2,48a.65.65,0,0,0-.18-.11.14.14,0,0,0-.09,0,.29.29,0,0,0-.12.1l0,.06-.05,0,.54-.75.05,0-.05.06a.28.28,0,0,0,0,.21s.07.1.17.17l1.11.83a.86.86,0,0,0,.18.12.2.2,0,0,0,.1,0,.31.31,0,0,0,.11-.09Z"/><path class="cls-1" d="M52.19,50l.55.49,0,.05a.66.66,0,0,0-.32-.15.49.49,0,0,0-.29,0,.66.66,0,0,0-.24.17.39.39,0,0,0-.1.27.26.26,0,0,0,.1.23.24.24,0,0,0,.18.07,1.74,1.74,0,0,0,.54-.14,3.78,3.78,0,0,1,.45-.15.57.57,0,0,1,.26,0,.43.43,0,0,1,.22.12.51.51,0,0,1,.19.42.69.69,0,0,1-.19.49l-.12.12-.18.12a.55.55,0,0,0-.16.11.09.09,0,0,0,0,.07.21.21,0,0,0,.05.09l0,0-.54-.49,0,0a.87.87,0,0,0,.33.14.47.47,0,0,0,.28,0,.67.67,0,0,0,.26-.19.45.45,0,0,0,.13-.31.34.34,0,0,0-.11-.25.35.35,0,0,0-.15-.07.45.45,0,0,0-.2,0l-.37.12a4,4,0,0,1-.44.14.81.81,0,0,1-.27,0,.42.42,0,0,1-.22-.11.54.54,0,0,1-.17-.4.63.63,0,0,1,.17-.46.9.9,0,0,1,.3-.22.26.26,0,0,0,.11-.07.09.09,0,0,0,0-.06.31.31,0,0,0-.05-.1Z"/><path class="cls-1" d="M45.92,55.49l.44.73.4-.25a.5.5,0,0,0,.18-.18.37.37,0,0,0-.06-.27l0,0,.39.64,0,0a1.12,1.12,0,0,0-.14-.15A.19.19,0,0,0,47,56a.42.42,0,0,0-.18.08l-.4.25.37.61a.55.55,0,0,0,.1.14l.06,0,.11-.05.31-.2a.8.8,0,0,0,.21-.16.38.38,0,0,0,.08-.17,1.29,1.29,0,0,0,0-.36l0,0,.12.56-1.39.88,0-.05.06,0a.35.35,0,0,0,.1-.11.12.12,0,0,0,0-.1,1,1,0,0,0-.09-.19l-.72-1.2c-.07-.12-.13-.18-.17-.19a.2.2,0,0,0-.19,0l-.06,0,0,0,1.4-.88.27.39-.06,0a.49.49,0,0,0-.18-.16.19.19,0,0,0-.15,0l-.2.09Z"/><path class="cls-1" d="M43.69,56.67l0,0a.34.34,0,0,0-.13.14.72.72,0,0,0,0,.28l0,2,0,0-1.46-1.39-.15-.12a.28.28,0,0,0-.12,0l-.16,0,0,0,.8-.36,0,.06a.49.49,0,0,0-.16.12.21.21,0,0,0,0,.11.8.8,0,0,0,.17.2l1,.94,0-1.36a2.07,2.07,0,0,0,0-.26A.19.19,0,0,0,43.3,57a.34.34,0,0,0-.17,0h0l0-.06Z"/><path class="cls-1" d="M40.14,60.27l0,.06-.88.23,0-.06.08,0a.21.21,0,0,0,.16-.12.46.46,0,0,0,0-.25l-.35-1.36a.62.62,0,0,0-.07-.2.16.16,0,0,0-.08,0h-.15l-.07,0,0-.06.89-.23v.05l-.07,0a.26.26,0,0,0-.17.13.6.6,0,0,0,0,.25L39.77,60a1,1,0,0,0,.07.21l.08,0h.15Z"/><path class="cls-1" d="M34.48,58.94l.58-.07,1.47,1.46-.14-1.24a.43.43,0,0,0-.07-.25.23.23,0,0,0-.19,0h-.07v-.06l.74-.09v.06h-.07a.21.21,0,0,0-.18.1.43.43,0,0,0,0,.24l.2,1.82h-.06l-1.58-1.57.15,1.33c0,.13,0,.22.07.24a.22.22,0,0,0,.19,0h.07V61l-.74.09V61h.08a.21.21,0,0,0,.18-.11.49.49,0,0,0,0-.23l-.17-1.5L34.78,59l-.15,0h-.14Z"/><path class="cls-1" d="M31.87,59V59l.75,0v.06h-.08a.21.21,0,0,0-.19.1.38.38,0,0,0,0,.23l0,.88a1.78,1.78,0,0,1-.08.5.64.64,0,0,1-.26.31,1.09,1.09,0,0,1-1,0,.66.66,0,0,1-.25-.34,2.09,2.09,0,0,1,0-.53l0-.85a.49.49,0,0,0-.05-.26.19.19,0,0,0-.17-.07h-.09v-.06l.92,0V59h-.08a.18.18,0,0,0-.19.08s0,.11,0,.24l0,.94c0,.09,0,.18,0,.29a.74.74,0,0,0,.07.26.5.5,0,0,0,.17.15.61.61,0,0,0,.28.07.78.78,0,0,0,.37-.09.47.47,0,0,0,.23-.23,1.52,1.52,0,0,0,.08-.49l0-.88a.44.44,0,0,0,0-.25A.25.25,0,0,0,32,59Z"/><path class="cls-1" d="M25.11,57.84l-.16.67-.05,0a.89.89,0,0,0-.09-.43.64.64,0,0,0-.4-.33.68.68,0,0,0-.69.11,1.21,1.21,0,0,0-.37.57,1.26,1.26,0,0,0-.07.57.83.83,0,0,0,.18.46.85.85,0,0,0,.33.24.93.93,0,0,0,.23,0,.62.62,0,0,0,.23,0l.19-.59a.7.7,0,0,0,0-.21.31.31,0,0,0,0-.1.46.46,0,0,0-.16-.08v-.06l.79.26,0,.06h0a.18.18,0,0,0-.19,0,.94.94,0,0,0-.1.22l-.2.63a1.76,1.76,0,0,1-.39,0,1.36,1.36,0,0,1-.38-.08A1.15,1.15,0,0,1,23,59.1a1.17,1.17,0,0,1,0-.74,1.22,1.22,0,0,1,.3-.48,1.25,1.25,0,0,1,.57-.32,1.14,1.14,0,0,1,.57,0,.66.66,0,0,1,.19.09,1.4,1.4,0,0,1,.23.16l.1.07a.07.07,0,0,0,.06,0,.17.17,0,0,0,.06-.09Z"/><path class="cls-1" d="M19.4,55.35l.52.26.45,2,.54-1.12c.06-.12.09-.2.07-.25a.25.25,0,0,0-.13-.14l-.07,0,0-.06.66.34,0,.05-.07,0a.2.2,0,0,0-.21,0,.48.48,0,0,0-.13.19l-.8,1.64,0,0L19.7,56l-.59,1.2a.44.44,0,0,0-.07.25.27.27,0,0,0,.14.14l.06,0,0,.06-.66-.34,0-.05.07,0a.2.2,0,0,0,.21,0,.48.48,0,0,0,.13-.19l.66-1.35a.81.81,0,0,0-.06-.2l-.1-.12a.31.31,0,0,0-.12-.07Z"/><path class="cls-1" d="M12.86,51.26l.7.71.43-.45a1,1,0,0,0,.14-.17.17.17,0,0,0,0-.1.35.35,0,0,0-.08-.13l-.05,0,0,0,.65.65,0,0-.06,0a.23.23,0,0,0-.12-.08.14.14,0,0,0-.11,0,.55.55,0,0,0-.15.14l-1,1a.62.62,0,0,0-.13.17.14.14,0,0,0,0,.09.27.27,0,0,0,.07.13l.06.06,0,0-.65-.65,0,0,.05.05a.23.23,0,0,0,.19.08s.11-.05.2-.15l.45-.47-.7-.7-.46.47a.62.62,0,0,0-.13.17.17.17,0,0,0,0,.1.24.24,0,0,0,.07.12l.06.06,0,0-.65-.65,0,0,.05.05a.2.2,0,0,0,.19.08s.11,0,.2-.15l1-1a.74.74,0,0,0,.14-.17.14.14,0,0,0,0-.09.24.24,0,0,0-.08-.13l-.05-.06,0,0,.65.65,0,0-.06,0a.32.32,0,0,0-.12-.08.14.14,0,0,0-.11,0,.55.55,0,0,0-.15.14Z"/><path class="cls-1" d="M10.14,49.89l-.05,0-.54-.75,0,0,.05.07a.25.25,0,0,0,.18.11A.46.46,0,0,0,10,49.2l1.11-.84a.8.8,0,0,0,.16-.15.13.13,0,0,0,0-.09.34.34,0,0,0-.05-.14l0-.06,0,0,.54.75-.05,0,0-.06a.22.22,0,0,0-.18-.11.46.46,0,0,0-.21.12l-1.11.83a.8.8,0,0,0-.16.15.16.16,0,0,0,0,.1.24.24,0,0,0,.05.14Z"/><path class="cls-1" d="M9.55,45l-.72.45.25.4c.06.11.12.17.17.18a.29.29,0,0,0,.26,0l0,0-.64.39,0,0A.7.7,0,0,0,9,46.2a.28.28,0,0,0,0-.13A.55.55,0,0,0,9,45.88l-.25-.4-.59.37A.49.49,0,0,0,8,46,.07.07,0,0,0,8,46a.17.17,0,0,0,0,.11l.18.32a1.8,1.8,0,0,0,.16.21.3.3,0,0,0,.17.08,1,1,0,0,0,.35,0l0,.05-.56.13-.85-1.42.05,0,0,.06a.27.27,0,0,0,.1.11.18.18,0,0,0,.1,0,.7.7,0,0,0,.19-.1l1.18-.74a.55.55,0,0,0,.19-.17.28.28,0,0,0,0-.2l0-.06.05,0,.86,1.42-.39.27,0,0a.58.58,0,0,0,.16-.19.25.25,0,0,0,0-.15.63.63,0,0,0-.1-.21Z"/><path class="cls-1" d="M7.4,42.55a.73.73,0,0,1,0,.37.46.46,0,0,1-.28.28.56.56,0,0,1-.34,0A.59.59,0,0,1,6.47,43a1.65,1.65,0,0,1-.27-.48l-.38-1,.06,0,0,.07a.19.19,0,0,0,.15.15.55.55,0,0,0,.24-.05l1.3-.52a.42.42,0,0,0,.22-.14.23.23,0,0,0,0-.2l0-.07,0,0,.35.87a2.79,2.79,0,0,1,.12.41.71.71,0,0,1,0,.39.49.49,0,0,1-.28.27.47.47,0,0,1-.59-.19Zm-.24-.81a1.68,1.68,0,0,0,.1.29c.1.25.23.39.38.42a.5.5,0,0,0,.24,0,.4.4,0,0,0,.26-.31.8.8,0,0,0-.06-.42,1.26,1.26,0,0,0-.14-.26l-.78.31Zm-1,.39a1.4,1.4,0,0,0,.1.35.74.74,0,0,0,.24.34.41.41,0,0,0,.4,0,.46.46,0,0,0,.29-.43,1.23,1.23,0,0,0-.08-.39A1.47,1.47,0,0,0,7,41.8Z"/><path class="cls-1" d="M16.39,55.12l-.68-.49-.32.2a.4.4,0,0,0-.15.12c-.05.06,0,.15.12.26l0,0-.56-.39,0,0a.3.3,0,0,0,.17,0,.89.89,0,0,0,.33-.15l1.66-1,0,0-.42,1.91a1.31,1.31,0,0,0,0,.27.33.33,0,0,0,.14.23l0,0L16,55.7l0-.05c.12.08.21.08.26,0a.8.8,0,0,0,.07-.22l.07-.33Zm0-.13.2-.92-.81.49Z"/><path class="cls-1" d="M51.58,53.86l-.43.38L49.93,54l-.1.09-.07.06.41.48c.09.1.15.15.2.16a.23.23,0,0,0,.18-.07l.07,0,0,0-.71.61,0,0,.06-.06a.21.21,0,0,0,.09-.19.57.57,0,0,0-.13-.2L49,53.73c-.09-.1-.16-.16-.2-.16a.23.23,0,0,0-.19.06l-.06.06,0,0,.6-.52a2,2,0,0,1,.34-.25.61.61,0,0,1,.41-.09.51.51,0,0,1,.29.17.55.55,0,0,1,0,.77l.75.18a1.28,1.28,0,0,0,.35,0,.57.57,0,0,0,.31-.12l0,0ZM49.69,54l0,0,0,0a.87.87,0,0,0,.25-.36.46.46,0,0,0-.09-.42A.47.47,0,0,0,49.6,53a.46.46,0,0,0-.34.12l-.16.19Z"/><path class="cls-2" d="M229.1,29.93a.83.83,0,0,0-.77.26c-.33.47-.18,1.34-.76,2.05s-2.92,0-3.34-.77a11.06,11.06,0,0,1-.4-5.33c.15-.49,1.17-1.07,1.17-1.59,0-.77-1-.77-1.53-.77a1.33,1.33,0,0,0-1,.52,3.22,3.22,0,0,1-1.54,1c-.77.26-1.25-.64-2.3-.51a1,1,0,0,0-.77.51c-.3.71.51,1.54.51,2.31a12.22,12.22,0,0,1-.54,3.17,2.42,2.42,0,0,1-.59.94c-.65.5-2.53,1.32-2,2,.24.28.73.13,1.29,0a3.56,3.56,0,0,0,2-1,9.13,9.13,0,0,0,.77-1.53,36.08,36.08,0,0,0,1.28-3.85c.1-.34.75-.54,1.28-.77s.26.26.26.52a38.51,38.51,0,0,0,.25,4.61c.27,1.35,2.07,2.76,3.33,3.33a4,4,0,0,0,3.08.51c.59-.23,1.22-.71,1.28-1.28a21.37,21.37,0,0,0-.77-4.1C229.3,29.94,229.19,29.94,229.1,29.93Z"/><path class="cls-2" d="M216.29,24c.51,0,1.18.36,1.54,0,.18-.18,7.38-3,7.94-3.16,1-.26,1.72-.22,2-.68.64-.89-.41-2.34-1.28-1.8a23.64,23.64,0,0,1-9,3.59c-.87.15-1.3.11-1.56.37s-.23.46-.23,1.17A.55.55,0,0,0,216.29,24Z"/><path class="cls-2" d="M222.44,19.17a3.55,3.55,0,0,0,1,0c.88-.27,2.68-3,1.53-3.59a1.94,1.94,0,0,0-.77-.25c-.51,0-1.34.21-1.79.25s-1.06-.19-1.54,0a2.87,2.87,0,0,0-1,.77,1.15,1.15,0,0,0-.28,1.1C219.86,18.33,220.16,19,222.44,19.17Z"/><path class="cls-2" d="M214.5,21.22a1.05,1.05,0,0,0-.26-1c-.7-1.27-2.36-.72-3.08-.26a5,5,0,0,0-.76.77c-.13.16-.34.63,0,.77a2.75,2.75,0,0,0,.76,0,5.68,5.68,0,0,1,1,0c.56.13.3,1.79.11,2.17,0,.05-.11.13-.37.13a2.88,2.88,0,0,1-.77-.25c-.62-.2-.72.12-1.28.25-.08,0-.57.25-.51,0,0-.07,0,0,0-.25,0-.77.49-2.66-.51-3.08-.24-.1-.63.3-.77.77a11.51,11.51,0,0,0,0,2.82,12,12,0,0,1-.26,3.59,1.31,1.31,0,0,1-1.53.77c-.52,0-2-.9-2.31-.26s-1,3.5.26,3.59c.45,0,1.89-.66,2.3-.26s-.67,1.55-1,2.28c-.21.43-.08,2,.24,2,1.14.19,1.56-3.53,2.82-4.84a8.81,8.81,0,0,1,2.82-1.54c1.06,0,.74,2.94.61,3.5-.06.25-.09.55-.22.48s-.11-.61-.58-1.44c-.13-.23-.52-.4-.67-.19-.47.66-.11,1.72.6,3,.56,1,1.32,2.56,2.06,2.05.55-.38.51-3.33.51-4.87,0-.76-.26-2.81-.26-3.33,0-.77,1.24-1.28,1-2.3-.06-.25-.52-.26-.77-.26s-.41,0-.55-.3a4.72,4.72,0,0,1,.49-1.75C214,23.29,214.36,21.55,214.5,21.22Zm-4.36,6.15h-.77V24.81h.51a5.21,5.21,0,0,1,.52,1.54A1.91,1.91,0,0,1,210.14,27.37Z"/><path class="cls-2" d="M214.24,14.05a5.36,5.36,0,0,0-3.33-.52c-1.26.15-1.51,1.94-1.79,2.71-.52,1.39-1.31,1.81-1,3.19.12.58,1.25-1.06,1.79-1.54a3.68,3.68,0,0,1,1.28-.77c1.43-.22,3.59.51,3.59-2.05A1.05,1.05,0,0,0,214.24,14.05Z"/><path class="cls-2" d="M196.56,15.84c-.78.23-1.29.48-2.05.77a16.92,16.92,0,0,1-4.1.77c-.08-.15-.08-.34.51-.51,1-.32,0-2.31-.77-3.08A2.92,2.92,0,0,0,188.1,13a11.72,11.72,0,0,0-2,.46c-.51.08-.87.11-1.22.18-.56.11-2.07,1-1.65,1.67.19.31.48.3.77.51A12.83,12.83,0,0,1,186,18c.2.27.7.31,1,.42.06,0,.2.12,0,.26-.43.29-4.82,2.32-5.13,1.54-.14-.38.16-.69.3-1.05s-.28-1.22-1.32-.75c-1.26.57-3.34,3.33-3.34,4.62a2.93,2.93,0,0,0,1,2.56,1.84,1.84,0,0,0,1.4.3,3.17,3.17,0,0,0,1.81-1.4,2.21,2.21,0,0,1,.63-.95A19.33,19.33,0,0,1,186,21.6c.82-.43,1.52-.94,2.32-1.4.49-.29,1-.43,1.5-.69a23.25,23.25,0,0,1,3.62-1.36c.26,0,.68.25.54.58a4.51,4.51,0,0,1-1.82,1.72c-.68.21-1.57,0-2,.51-.84,1-.24,3.07-1,4.11a27.39,27.39,0,0,1-3.09,3c-.2.16-.53.29-1,.59a.79.79,0,0,0-.26.77c.46,1.78.63,1.3,1.47,2.16.4.41.84.66.84,1.17,0,.26-.9.85-.9.85a8,8,0,0,1-1.92.69c-1.89.33-3.45.54-2.82,2.82.22.78.8,1,1.79.77a11.22,11.22,0,0,0,1.8-.77c.63-.28,3.42-2,11.53-2.56.57,0,.82-1.3.51-2a3.2,3.2,0,0,0-1.54-1.28c-1.26-.57-4.65,1.27-5.64,1-.24-.06,0-1.72.12-2.06s.71-.41,1-.58c1.06-.58,1.94-1.2,1.43-2.74-.21-.84-2.17,0-3.89.55-.18.06-.39-.11-.21-.29s.42-.4.59-.57a10,10,0,0,1,2.48-2c.77-.51,1.54-.77,1.8-1.28a1.57,1.57,0,0,0,.25-1c0-.51-.59-1.14-.25-1.28a23.88,23.88,0,0,1,2.56-.34c.51,0,1.79-.17,2.05-.17a2.19,2.19,0,0,0,2.31-1.28c.29-.71-.26-1.28-1-2.05C198.61,16.61,197.57,15.54,196.56,15.84Z"/><path class="cls-2" d="M186.05,26.35a1.33,1.33,0,0,0,.77-.77,4.27,4.27,0,0,1,.51-1,2,2,0,0,0,.52-.77.38.38,0,0,0-.26-.51c-.25,0-1,.47-1.28.51a1.2,1.2,0,0,1-.33,0c-.5-.11-1.07-.47-1.47-.25-.63.35-.25,2,.26,2.56A1.73,1.73,0,0,0,186.05,26.35Z"/><path class="cls-2" d="M151.34,19.93a15.07,15.07,0,0,1,2.42-.76,13.4,13.4,0,0,0,3.59-1.28,2.34,2.34,0,0,0,.51-2.05,1.28,1.28,0,0,0-.77-1,14.44,14.44,0,0,0-1.79-.25A3.61,3.61,0,0,0,154,14.3c-1.55.13-1.39,2.92-2.31,4.1-.44.57-2.05,1.28-2.05,1.8a2.48,2.48,0,0,0,.77,1.53,2.83,2.83,0,0,1,.51,1.54,15,15,0,0,1-.08,3.45c0,.26-.09.91-.17,1.42-.13.8-1.2,1.24-2,1.34a5.88,5.88,0,0,0-1.7.25,1.85,1.85,0,0,0-.64.72c-.67.93-1.29,2.22-.26,2.56a2.45,2.45,0,0,0,1.54-.26c.51-.26.69-.46,1.18-.74.27-.15.36-.33.62-.28,1.35.26-.79,3.82,1.53,4.87.38.17,1-3,1.21-4.34A2.13,2.13,0,0,1,153,31a3.52,3.52,0,0,0,1-.51,7.12,7.12,0,0,0,1-1.28c.13-.23.26-.07.26,0,0,.25.24,1,.26,1.53,0,.26.08,2.68-.26,2.82s-.79-1.63-1-1.79c-.45-.32-.52.25-.52.51a2.72,2.72,0,0,0,.26,1.28,8.62,8.62,0,0,1,.77,2,5,5,0,0,0,.25,1.54c.34.46,1,1,1.54.51,1.48-1.35.89-5.32.89-7.11,0-.51.14-1.6.14-2.37a39.83,39.83,0,0,1,0-4.45c.19-1.55.47-3.25-1.19-4a2.42,2.42,0,0,0-1.83-.15c-.35.15-.46.44-.71.69a5.83,5.83,0,0,0-.7,1,2.29,2.29,0,0,1-.76.9c-.18.09-.5-.66-.76-.92S150.91,20.31,151.34,19.93Zm1.4,4.62a3.54,3.54,0,0,1,.51-1.28c.31-.56.4-.86,1-1,.78-.2,1.11,1,1.23,1.52s.14,1.75-.21,1.82c-.56.1-1.1-.85-1.28-1-.54-.54-.82,1.29-.77,1.8a.82.82,0,0,1-.26.77C152.48,26.6,152.61,25.35,152.74,24.55Z"/><path class="cls-2" d="M161.31,23.26a13.07,13.07,0,0,0,3.19-1.61c.55-.31.68-.59,1.05-.69,1-.27,1.28,0,2.31,0a6.7,6.7,0,0,0,2.82-.76.88.88,0,0,0,.51-1c-.34-1-3.79,1.13-4.1.26-.07-.21.51-.77,1.14-1.49s-.22-2.39-2.17-2.36a7.79,7.79,0,0,0-2.3.26c-.77.22-2.23,1.17-2,2.31.12.76,1.88.94,1.53,1.79-.2.51-.73.59-1.28.77a9.45,9.45,0,0,0-1,.37c-.27.15-1.09.65-1.09,1.42,0,.52.12,1,.52,1S160.9,23.36,161.31,23.26Z"/><path class="cls-2" d="M259.86,33.27a13.75,13.75,0,0,1-1.8-.52c-1.5-.62-3.3-1.07-4.61-1.79-1-.55-2.18-1.18-3.08-1.79-2.36-1.63-4.11-3.33-3.67-3.9.86-1.13,2.49-1.22,3.93-2,.71-.39,2-1.48.77-2.05-1.57-.7-2.77-.12-4.1-.26-1.69-.17-1.28-1-1-1.28s.79-.29,1.54-.51,3.21-1.85,2.56-4.36a1.17,1.17,0,0,0-.76-.76c-1.26-.57-2.59.46-3.85,1a15.77,15.77,0,0,1-2,.77c-1,.3-2,.51-3.07.77a1.45,1.45,0,0,0-.77.51c-.93,1.18.83,1.77,1.53,2.31A4.63,4.63,0,0,1,242.68,22c0,2.05-3.79.53-4.35,2.31a1.87,1.87,0,0,0,.26,1.79c.4.4,2.66,1.09,2.43,1.87-.37,1.27-3,3.22-4,3.51-.78.23-1.55.11-2.05.51a1.09,1.09,0,0,0-.26,1.29c.26.51,1,.51,1.54.51,1.54,0,4.24-.62,5.38-1.8.89-.92,1.47-2.1,2.31-3.07a.54.54,0,0,1,.77,0,9.18,9.18,0,0,1,.76.77,41.46,41.46,0,0,0,4.36,3.84,11.52,11.52,0,0,0,2.82,1.8c1.85.62,5.49-.06,7.43-1.28a.92.92,0,0,0,.26-.26C260.47,33.54,260.1,33.32,259.86,33.27Z"/><path class="cls-2" d="M123.78,35.57c-.77,0-1.33-.92-2-.77s-1.18,2.74-1.09,3.31.33,1,.58,1c1.77.56,2-1.07,2.58-2,.37-.62.66-.75,1-1.36C125,35.51,124,35.56,123.78,35.57Z"/><path class="cls-2" d="M136.34,30.19a3.1,3.1,0,0,0-1.21.39.67.67,0,0,0-.33.64c.09.79,2.26,3.61,2.82,4.1a1.72,1.72,0,0,0,1.79.25A4,4,0,0,0,141,32.75a1.73,1.73,0,0,0-.26-1.28C140,30.16,137.87,29.93,136.34,30.19Z"/><path class="cls-2" d="M136.34,25.07a14.45,14.45,0,0,0,1.52-1.5c.21-.21.51-.54.32-.78a1.64,1.64,0,0,1-.3-.55c-.14-.33-1-.25-1.54-.25h-1a13.19,13.19,0,0,0-1.79,0,31.08,31.08,0,0,0-3.6,1.11,23.57,23.57,0,0,1-3.77,1.45c-1.09.12-.23,5.74.7,6.41s1.73-.2,2.31.51a6.23,6.23,0,0,1,.5,3.31.76.76,0,0,1-.5.54c-.6.27-1.29-.34-1.53-.26s-.27.19-.26.26c.06.59,1.79,2.3,2,2.56a2.84,2.84,0,0,1,.51,1c.12.29,1.33-.17,1.79-.51a2.69,2.69,0,0,0,1-1.83c0-.26,0-1,0-1.24a17.34,17.34,0,0,0-.26-5.64c-.07-.25,0-.23,0-.26s.59.07.77,0c.34-.14.6-.57.77-.77.56-.65-.07-1.59.51-2.3a3.91,3.91,0,0,1,1-.77A4.47,4.47,0,0,0,136.34,25.07Zm-4.92.3a14.07,14.07,0,0,1-1.49,1.23c-.3.2-1,.82-1.28.52-.78-1,.49-1.64,1.28-1.8a5.65,5.65,0,0,1,1.54-.25C131.68,25.21,131.47,25.33,131.42,25.37Z"/><path class="cls-2" d="M135.63,16.87c-1,0-2.52.19-2.11-.26a1.85,1.85,0,0,0-.78-3.15,15.62,15.62,0,0,0-2-.08,5.94,5.94,0,0,0-1.82-.17,3.75,3.75,0,0,0-1.54.84c-1.28,1.28.73,2.14,1.54,2.56a.45.45,0,0,1,.25.51,1.15,1.15,0,0,1-.74,1.09,30.56,30.56,0,0,1-5.15,1.73c-1.11.23-2.76-.53-3.08,1A3,3,0,0,0,120.7,23a1.73,1.73,0,0,0,1.29.51c.77,0,1-1,1.53-1.29.8-.46,3-1.09,3.85-1.53a11.17,11.17,0,0,1,2.56-1,42.29,42.29,0,0,1,6.41-.76,12.55,12.55,0,0,1,2.3,0,4.4,4.4,0,0,0,2.05,0c.52-.26.77-.52.77-1C141.21,16.61,138.06,16.78,135.63,16.87Z"/><path class="cls-2" d="M275.23,26.35a1.7,1.7,0,0,1-.25-1.54c.13-.56,1.85-1.68,3.84-1.54.51,0,1.8-.56,1.54-1.28a11,11,0,0,0-1.08-1.63c-.67-.93-2.25-.43-3,.09-.22.15-1.93,1.05-1.8,0a3.65,3.65,0,0,1,.26-1c.55-1.34,1.89-1.64.6-3.66-.51-.8-1.37-.7-1.88-1a3.78,3.78,0,0,0-1.54-.51,2.36,2.36,0,0,0-1.54.77c-1,1.4-.05,2.33.51,3.59.24.52.52,2.56,0,3.33s-4.53,1.54-5.63,1.28a2.39,2.39,0,0,0-1.54,0,1.58,1.58,0,0,0-.77,1.8,1.15,1.15,0,0,0,.26.51,3.05,3.05,0,0,0,1.79,1c1.28.09,3.84,0,4.1,0a.85.85,0,0,1,.77.77c.2,2.07-2.4,4-3.84,4.36a13.79,13.79,0,0,0-2.31.51c-.53.22-1.49,1.21-.77,1.8a2.05,2.05,0,0,0,1.54.51,9.43,9.43,0,0,0,3.84-.51c1.12-.5,2.56-2.92,2.84-3.59.19-.47.76-1.72,1.26-1.8.8-.13,2.87,2.77,3.33,3.33.59.72,1.21,1.34,1.8,2.06.46.55,1.09,1.66,1.79,1.79a24.53,24.53,0,0,0,3.84,0c1,0,2.66.49,3.08-.51a.78.78,0,0,0,0-.77,9.28,9.28,0,0,0-1.79-1C282.59,32.33,278.18,29.71,275.23,26.35Z"/><path class="cls-2" d="M305.22,26.45a1.72,1.72,0,0,0-1.29.15c-.92.52-3.5,1.34-3.58.52-.06-.51,1.79-2.31,2.3-2.57s1-.3,1.28-.77c.21-.29.51-.77.26-1a2.61,2.61,0,0,0-2.56-.26c-.69.43-3.62,2.33-6.41,2.05-.26,0-.44.27-.51.52-.27.88.79,1.59,1.54,1.28a10,10,0,0,1,1.53-.77c.25-.06,1.36-.5,1.28-.26s-.5,1-.51,1c-.13.8.25,2-.77,2.3a13.9,13.9,0,0,1-3.07.26c-.52,0-1-.05-1.54,0s-1,.19-1,.77a1.49,1.49,0,0,0,.52,1c1.47,1.36,3.79-.45,5.89-.25a.77.77,0,0,1,.51.25,2.21,2.21,0,0,1,.26,1.54,2.25,2.25,0,0,1-.76,1.6,2.79,2.79,0,0,1-2.06.45c-.76-.1-1.59-.8-2.05,0a.62.62,0,0,0,0,.51A7.68,7.68,0,0,0,298,38.9a.86.86,0,0,0,.51,0c1.36-.26,3-2.83,3.13-4.68.06-1.17-.31-4,.2-4.54a2.48,2.48,0,0,1,.93-.45,5.48,5.48,0,0,1,1.38-.32c1.27-.14,2.5.72,2.56-.77a1.65,1.65,0,0,0-1-1.54Z"/><path class="cls-2" d="M112.25,29.93a14.34,14.34,0,0,0-2.31.26,5.68,5.68,0,0,1-2.55,0c-.43-.11-.52-.56-.52-1.07a18.48,18.48,0,0,1,.25-3.34,7.74,7.74,0,0,1,1-2.3,2.14,2.14,0,0,1,1.28-.51c1-.13,2.95-.39,3.59-1a2.1,2.1,0,0,0,.51-2.31,2.61,2.61,0,0,0-3.08-1c-.62.31-1.53,1.28-2,.51-.76-1.28,2.31-2.05,1.29-4.1a2.94,2.94,0,0,0-2-1.28,2.61,2.61,0,0,0-2.31.77c-1.11,1.21-1.11,1.88-.82,3.72a8.49,8.49,0,0,1,.11,1.69,8,8,0,0,1-.57,2.53,22,22,0,0,0-.26,4.1A26,26,0,0,0,104.3,32c.36.86,1,1.12,1.8,1.54,1.49.76,5.82,1.39,7.17.77a2,2,0,0,0,1-1.54,2.31,2.31,0,0,0-.51-1.79A2.44,2.44,0,0,0,112.25,29.93Z"/><path class="cls-2" d="M98.15,17.89c-1.29-1-5.38-2.05-6.15.26-.51,1.53,1.28,2.81.26,4.61-.51,1.28-4.05,1-3.84,2.82.34,3.06,4.57.48,3.93,4.43a4.53,4.53,0,0,1-1.11,2.23,17.77,17.77,0,0,1-3.33,2.37c-.8.13-1.22-.48-2.31.19a1.6,1.6,0,0,0-.16,2.05c.33.6.32,1.43.67,1.8,1.28,1.36,3.34-.2,4.52-1.12a22.78,22.78,0,0,0,2.12-1.79A12,12,0,0,1,94.57,34c.76-.52,1.58-.23,2.05-1,.28-.5,1.28-5.13,1.79-6.92.26-1,1.21-4.1,1.28-4.87A3.66,3.66,0,0,0,98.15,17.89Z"/><path class="cls-2" d="M174.26,33.78c-.17-.75-.5-1.42-.77-2.31a5.79,5.79,0,0,0-.51-1.79c-.21-.3-.59-.69-.77-.51s-.15,2.62-.51,3.07-2.78-.39-3.25-.73a3.11,3.11,0,0,1-1-1,7,7,0,0,1-.4-3.62c.29-1.28,2.83-3.72.25-3.84a2.67,2.67,0,0,0-1.79.76,8.28,8.28,0,0,1-1.54,1,4.93,4.93,0,0,1-1.79.51c-.26,0-.4-.07-.51,0-.49.3-.39,1.24-.52,1.8A25.21,25.21,0,0,1,160,30.91c-.31.75-.57,1.12-.93,2a4.29,4.29,0,0,0-.47,1.34c-.06.51.2.73.77.77.81.06,1.33-.74,1.79-1.54a19,19,0,0,0,1.29-2.82c.63-1.66.28-3.53,1.79-4.1.14-.05.75.07.77.26,0,.36,0,1,0,1.28a14.41,14.41,0,0,0,.77,4.87c.4,1,3.51,3.07,4.87,3.33a3.07,3.07,0,0,0,1.53-.26c.48-.19,1.08.08,1.54-.25A2.14,2.14,0,0,0,174.26,33.78Z"/><path class="cls-2" d="M311.62,20.45a2.13,2.13,0,0,0-.26-1.28,2.84,2.84,0,0,0-2.82-.51,8.56,8.56,0,0,1-1.79.77c-.43.05-1.21-.06-1.27-.39a11.93,11.93,0,0,1,1.27-2.43c.26-.51,1.25-3.35,1.54-3.84.46-.81,2.2-1.9,1.28-3.08-.22-.29-.84-.9-2.82-.77-.81.05-.91,1.27-1.79,1.54-.25.07-.8.27-.8.76,0,.26.54.52.8.78a2.31,2.31,0,0,1,0,1.79c-.59.71-3.2-.25-3.08.77s2.26,1.74,2.31,2c.13.84-2,.39-2.31,1.28a.68.68,0,0,0,0,.51c.14.34,1.2.54,1,1.28-.14.56-2.11.8-2.31-.51a6.07,6.07,0,0,1,0-1.28c.13-.8,1.61-2.1,1-2.82-.23-.28-.52-.26-.77-.51a.59.59,0,0,1-.07-.82c.52-.92,1-.52,1.61-1.23a1.62,1.62,0,0,0-.26-2,4.29,4.29,0,0,0-1.79-.26c-1.8,0-.73,2.71-1.54,3.08a15.54,15.54,0,0,1-1.54.25c-.26,0-.33.58-.26.77a4.64,4.64,0,0,1,.26.77c.13.56-.54,1.67.51,1.8.26,0,.51-.26.77-.26h.51c.26,0-.12.46-.25.51s-1,0-1.1.22c-.42.73.17,1.1.07,1.58s-.89.94-1,1.28-.08.58-.26.76c-.49.52-.51-.76-.51-1s.26-2.56.26-3.07V15.58a3.15,3.15,0,0,1,.25-1c.2-.48-.51-1.28-1-1.54s-1.67,0-1.8.77c-.08.5.51,1,.51,1.54s.26,2.3.26,2.82V21a1,1,0,0,1-.51.77.49.49,0,0,1-.71-.33,1.6,1.6,0,0,1-.06-.69,27.11,27.11,0,0,1-.26-2.82c.13-1.3-.58-4-1.79-4.36-.24-.08-.63-.33-.77,0a1.54,1.54,0,0,0,0,.77,15,15,0,0,0,.9,2.75c.15.49.44,1.76.58,2.32a10.94,10.94,0,0,1,.16,2.36c0,.51.33,1.19.15,1.29a.43.43,0,0,1-.46,0c-.68-.35-.51-1.95-1.33-1.52-1.22.64-3.29,5.65-1,6.15.8.17,2.78-1.84,3.34-2.31,1.36-1.15,5.81-3.19,6.66-3.59.33-.15,1,0,1.54-.25s.77-.77,1.28-.77,1,1.1,1.79,1.28c1.12.26,6.5.16,7.43-.51C311.66,21.27,311.62,20.71,311.62,20.45Z"/><path class="cls-2" d="M99.52,46.45h5.27a3.63,3.63,0,0,1,2.38.69,2.14,2.14,0,0,1,.82,1.71,2,2,0,0,1-.58,1.46,3.84,3.84,0,0,1-1.72.95,4.58,4.58,0,0,1,2.14.94,2.13,2.13,0,0,1,.71,1.63,2.22,2.22,0,0,1-.41,1.34,3,3,0,0,1-1.35,1,5.39,5.39,0,0,1-2.15.41H99.52V56h.84a1,1,0,0,0,.55-.12.35.35,0,0,0,.17-.28V47.55a.53.53,0,0,0-.17-.44.73.73,0,0,0-.5-.14h-.89Zm3,4.64h1.92a1.89,1.89,0,0,0,1.4-.52,2.31,2.31,0,0,0,.52-1.7,2.13,2.13,0,0,0-.25-1.13,1.34,1.34,0,0,0-.72-.6,4.83,4.83,0,0,0-1.64-.19,2.58,2.58,0,0,0-1,.12.46.46,0,0,0-.2.42Zm0,.51v3.9a.53.53,0,0,0,.16.41.94.94,0,0,0,.58.13h1.22a2.63,2.63,0,0,0,1.8-.53,2.17,2.17,0,0,0,.58-1.67,2.21,2.21,0,0,0-.6-1.64,2.24,2.24,0,0,0-1.66-.6Z"/><path class="cls-2" d="M111.7,46.45h8l.2,3.41h-.46a4.42,4.42,0,0,0-.87-2.25A2,2,0,0,0,117,47h-2a.45.45,0,0,0-.36.13.5.5,0,0,0-.13.39v3.6h.87a1.44,1.44,0,0,0,1.13-.5,2.38,2.38,0,0,0,.46-1.53h.47v4.68H117a2.63,2.63,0,0,0-.47-1.66,1.49,1.49,0,0,0-1.2-.5h-.79v4a.41.41,0,0,0,.15.34.86.86,0,0,0,.49.11h1.56c1.7,0,2.67-1.08,2.93-3.25h.5L120,56.56H111.7V56h.69a.85.85,0,0,0,.57-.14.53.53,0,0,0,.16-.4v-8a.5.5,0,0,0-.14-.39.65.65,0,0,0-.45-.13h-.83Z"/><path class="cls-2" d="M123.22,46.45h4.66V47h-.8a1.08,1.08,0,0,0-.67.13.82.82,0,0,0-.14.56v7.65A.57.57,0,0,0,127,56h.89v.52h-4.66V56h.88a1,1,0,0,0,.61-.13.91.91,0,0,0,.13-.6V47.66q0-.44-.12-.54A1.19,1.19,0,0,0,124,47h-.8Z"/><path class="cls-2" d="M130.88,46.45h4.31V47h-.79c-.28,0-.46,0-.54.14a1.23,1.23,0,0,0-.13.72v3.11h4.62V47.83a1.32,1.32,0,0,0-.12-.73c-.08-.09-.27-.13-.56-.13h-.74v-.52h4.29V47h-.79A.84.84,0,0,0,140,47a.55.55,0,0,0-.2.26,3.12,3.12,0,0,0,0,.61v7.27a1.25,1.25,0,0,0,.09.63.77.77,0,0,0,.65.23h.7v.52h-4.29V56h.74a.66.66,0,0,0,.59-.24,1.48,1.48,0,0,0,.09-.68V51.61h-4.62v3.57a1.5,1.5,0,0,0,.08.64.7.7,0,0,0,.59.22h.79v.52h-4.31V56h.82a.61.61,0,0,0,.35-.09.45.45,0,0,0,.19-.25,2.73,2.73,0,0,0,0-.58V47.83a1.32,1.32,0,0,0-.13-.72c-.08-.1-.27-.14-.55-.14h-.72Z"/><path class="cls-2" d="M148.58,46.24H149l3.62,9.24a.86.86,0,0,0,.9.56h.31v.52h-4V56h.32a2.1,2.1,0,0,0,.89-.13.32.32,0,0,0,.18-.3.74.74,0,0,0,0-.24l-.84-2.15h-4l-.47,1.23a2.27,2.27,0,0,0-.19.78.71.71,0,0,0,.31.57,1.47,1.47,0,0,0,.91.24h.34v.52h-3.66V56a1.53,1.53,0,0,0,.93-.25,2.33,2.33,0,0,0,.63-1Zm-.2,1.95-1.81,4.5h3.56Z"/><path class="cls-2" d="M156.19,46.45h2.41l6.09,7.94V48.65a1.8,1.8,0,0,0-.4-1.29,1.43,1.43,0,0,0-1.07-.39v-.52h3.53V47a1.71,1.71,0,0,0-.81.15,1.26,1.26,0,0,0-.46.54,1.85,1.85,0,0,0-.2.87v8h-.64l-6.31-8.27v6.1a1.64,1.64,0,0,0,.42,1.23A1.85,1.85,0,0,0,160,56v.52h-3.85V56a1.53,1.53,0,0,0,1.14-.47,1.51,1.51,0,0,0,.43-1.1V47.63l-.12-.13a2.19,2.19,0,0,0-.49-.44,1.23,1.23,0,0,0-.51-.09h-.45Z"/><path class="cls-2" d="M176.69,47.25l.56-1h.46l.25,4h-.44a6.43,6.43,0,0,0-1.21-2.51,2.67,2.67,0,0,0-2-1,2.61,2.61,0,0,0-1.58.5,3.07,3.07,0,0,0-1.06,1.49,8.25,8.25,0,0,0-.38,2.81,8,8,0,0,0,.38,2.74,3,3,0,0,0,1,1.46,2.59,2.59,0,0,0,1.54.46,2.47,2.47,0,0,0,1.84-.66,2.37,2.37,0,0,0,.65-1.73v-1a.39.39,0,0,0-.17-.35,1.05,1.05,0,0,0-.57-.12h-.85v-.48h4.23v.48h-.57a.87.87,0,0,0-.55.13.47.47,0,0,0-.16.39v3.85h-.45c-.17-.6-.34-1.17-.52-1.72a3.52,3.52,0,0,1-1.22,1.26,3.06,3.06,0,0,1-1.6.42,4.45,4.45,0,0,1-2.36-.66,4.68,4.68,0,0,1-1.73-1.85,6.06,6.06,0,0,1,0-5.4A4.88,4.88,0,0,1,171.92,47a4.08,4.08,0,0,1,2.23-.71,3.38,3.38,0,0,1,1.22.22A5.08,5.08,0,0,1,176.69,47.25Z"/><path class="cls-2" d="M187.61,46.45h4.67V47h-.94a.84.84,0,0,0-.52.12.45.45,0,0,0-.15.37v5.71a4.6,4.6,0,0,0,.15,1.35,2.1,2.1,0,0,0,.85,1.08,3.47,3.47,0,0,0,3.72-.31,2.57,2.57,0,0,0,.72-1.91V48.74a3.61,3.61,0,0,0-.09-.93,1.11,1.11,0,0,0-.24-.5,1.07,1.07,0,0,0-.41-.26,2.66,2.66,0,0,0-.82-.08v-.52h3.82V47h-.27a1.24,1.24,0,0,0-1,.34,1.43,1.43,0,0,0-.31,1v5a3.24,3.24,0,0,1-.93,2.49,3.93,3.93,0,0,1-2.78,1,5.51,5.51,0,0,1-2.37-.43,2.62,2.62,0,0,1-1.25-1.23,3.57,3.57,0,0,1-.29-1.53v-6.1a.44.44,0,0,0-.16-.36.74.74,0,0,0-.48-.13h-1Z"/><path class="cls-2" d="M201,46.45h2.41l6.09,7.94V48.65a1.84,1.84,0,0,0-.39-1.29,1.44,1.44,0,0,0-1.08-.39v-.52h3.54V47a1.71,1.71,0,0,0-.81.15,1.21,1.21,0,0,0-.47.54,2,2,0,0,0-.2.87v8h-.64l-6.31-8.27v6.1a1.64,1.64,0,0,0,.42,1.23,1.85,1.85,0,0,0,1.29.42v.52H201V56a1.57,1.57,0,0,0,1.15-.47,1.54,1.54,0,0,0,.42-1.1V47.63l-.12-.13a2.49,2.49,0,0,0-.48-.44,1.29,1.29,0,0,0-.51-.09H201Z"/><path class="cls-2" d="M214.19,46.45h4.66V47h-.8a1.08,1.08,0,0,0-.67.13.82.82,0,0,0-.14.56v7.65A.57.57,0,0,0,218,56h.89v.52h-4.66V56h.89a.93.93,0,0,0,.6-.13.91.91,0,0,0,.13-.6V47.66q0-.44-.12-.54A1.19,1.19,0,0,0,215,47h-.8Z"/><path class="cls-2" d="M221.13,46.45h4.25V47h-.73a1.23,1.23,0,0,0-.62.1.36.36,0,0,0-.17.3,1.24,1.24,0,0,0,.12.42l.06.14,2.66,6.77,2.35-6.46a1.33,1.33,0,0,0,.07-.47.77.77,0,0,0-.22-.59.85.85,0,0,0-.61-.21h-.69v-.52h3.73V47H231a1,1,0,0,0-.68.32,2.76,2.76,0,0,0-.62,1.06l-3.12,8.44h-.5l-3.56-9a1.49,1.49,0,0,0-.43-.62,1.08,1.08,0,0,0-.66-.17h-.33Z"/><path class="cls-2" d="M234,46.45h8l.19,3.41h-.45a4.51,4.51,0,0,0-.87-2.25,2,2,0,0,0-1.53-.64h-2a.45.45,0,0,0-.36.13.5.5,0,0,0-.13.39v3.6h.87a1.44,1.44,0,0,0,1.13-.5,2.44,2.44,0,0,0,.46-1.53h.47v4.68h-.47a2.63,2.63,0,0,0-.47-1.66,1.49,1.49,0,0,0-1.2-.5h-.79v4a.41.41,0,0,0,.15.34.86.86,0,0,0,.49.11h1.56c1.7,0,2.67-1.08,2.93-3.25h.49l-.17,3.77H234V56h.69a.82.82,0,0,0,.56-.14.5.5,0,0,0,.17-.4v-8a.47.47,0,0,0-.15-.39.62.62,0,0,0-.45-.13H234Z"/><path class="cls-2" d="M245.39,46.45h5.22a3.6,3.6,0,0,1,2.35.69A2.24,2.24,0,0,1,253.8,49a2.21,2.21,0,0,1-.33,1.2,2.45,2.45,0,0,1-1,.83,6.22,6.22,0,0,1-2,.45,4.73,4.73,0,0,1,1.34.52,2,2,0,0,1,.59.66,8.62,8.62,0,0,1,.51,1.66,3.76,3.76,0,0,0,.44,1.22.47.47,0,0,0,.38.25c.14,0,.27-.1.39-.31a2.52,2.52,0,0,0,.22-1.09h.47c-.09,1.54-.66,2.32-1.72,2.32a1.42,1.42,0,0,1-1.41-1,11.45,11.45,0,0,1-.32-1.93,3.71,3.71,0,0,0-.32-1.29,1.59,1.59,0,0,0-.7-.62,2.57,2.57,0,0,0-1.12-.23h-.83v4a.39.39,0,0,0,.13.35.8.8,0,0,0,.51.13h1v.52h-4.69V56h1a.71.71,0,0,0,.48-.13.43.43,0,0,0,.15-.35V47.48a.46.46,0,0,0-.15-.38.74.74,0,0,0-.48-.13h-1Zm3.08,4.65h1.19a3.32,3.32,0,0,0,1.89-.46,1.8,1.8,0,0,0,.68-1.61,2.63,2.63,0,0,0-.26-1.26,1.35,1.35,0,0,0-.67-.63,5,5,0,0,0-1.64-.17,2.5,2.5,0,0,0-1,.11.39.39,0,0,0-.19.38Z"/><path class="cls-2" d="M263.42,47.22l.62-.88h.5l0,3.68h-.45a5,5,0,0,0-1.26-2.47,2.7,2.7,0,0,0-1.91-.78,2.05,2.05,0,0,0-1.47.54,1.76,1.76,0,0,0-.58,1.32,1.53,1.53,0,0,0,.87,1.44,6.85,6.85,0,0,0,1.64.49,9.5,9.5,0,0,1,2.37.74,2.58,2.58,0,0,1,1,1,2.51,2.51,0,0,1,.34,1.33,3,3,0,0,1-.92,2.27,3.26,3.26,0,0,1-2.38.9,4,4,0,0,1-2.71-1l-.78.94h-.49V52.76h.49a4.48,4.48,0,0,0,1.29,2.56,3.21,3.21,0,0,0,2.25.94,2.33,2.33,0,0,0,1.65-.6,1.92,1.92,0,0,0,.63-1.45,1.49,1.49,0,0,0-.24-.85,1.75,1.75,0,0,0-.75-.62,11,11,0,0,0-2.05-.6,6.26,6.26,0,0,1-2.28-.89,2.41,2.41,0,0,1-.85-2,2.91,2.91,0,0,1,3-3,3.26,3.26,0,0,1,1.21.23A4.17,4.17,0,0,1,263.42,47.22Z"/><path class="cls-2" d="M268.1,46.45h4.66V47H272a1.08,1.08,0,0,0-.67.13.82.82,0,0,0-.14.56v7.65a.57.57,0,0,0,.72.73h.89v.52H268.1V56H269a1,1,0,0,0,.61-.13.91.91,0,0,0,.13-.6V47.66q0-.44-.12-.54a1.19,1.19,0,0,0-.7-.15h-.8Z"/><path class="cls-2" d="M275.71,46.45h8.21l.2,3.82h-.48c-.31-2.24-1.12-3.37-2.43-3.37a.83.83,0,0,0-.55.14.62.62,0,0,0-.14.45v8.08a.43.43,0,0,0,.14.36.81.81,0,0,0,.47.11h1v.52h-4.69V56h1.16a.52.52,0,0,0,.35-.11.42.42,0,0,0,.13-.31V47.43a.5.5,0,0,0-.16-.39.78.78,0,0,0-.51-.14,2,2,0,0,0-1.65.94,5.74,5.74,0,0,0-.79,2.43h-.49Z"/><path class="cls-2" d="M286.17,46.45h4.42V47h-.49a2.14,2.14,0,0,0-.79.09.28.28,0,0,0-.19.27.53.53,0,0,0,.1.32l2.56,4,1.85-3.39a1.06,1.06,0,0,0,.12-.5.74.74,0,0,0-.23-.56,1,1,0,0,0-.67-.21h-.47v-.52h3.86V47a2,2,0,0,0-1.05.23,2.28,2.28,0,0,0-.73.87l-2.34,4.27v3.2a.41.41,0,0,0,.15.36.94.94,0,0,0,.58.14h.87v.52h-4.64V56H290a.84.84,0,0,0,.53-.13.45.45,0,0,0,.17-.37V52.43l-3.14-4.88a1.17,1.17,0,0,0-.48-.44,2.2,2.2,0,0,0-.91-.14Z"/></g></g></svg>