<svg xmlns="http://www.w3.org/2000/svg" viewBox="0 0 198.67 198.67"><defs><style>.cls-1{fill:#005bac;fill-rule:evenodd;}</style></defs><g id="图层_2" data-name="图层 2"><g id="图层_1-2" data-name="图层 1"><path class="cls-1" d="M85.84,151.2,88,150.14h.22v7.57a4.21,4.21,0,0,0,.06.94.48.48,0,0,0,.26.28,2.19,2.19,0,0,0,.81.12v.24H86v-.24a2.35,2.35,0,0,0,.82-.11.55.55,0,0,0,.26-.26,3.33,3.33,0,0,0,.08-1v-4.84a7.53,7.53,0,0,0-.07-1.26.55.55,0,0,0-.17-.31.48.48,0,0,0-.29-.1,1.73,1.73,0,0,0-.69.21Z"/><path class="cls-1" d="M92.05,159.4v-.24a3.51,3.51,0,0,0,1.6-.4,4.23,4.23,0,0,0,1.44-1.36,6,6,0,0,0,1-2.12,3.56,3.56,0,0,1-1.89.67,2.14,2.14,0,0,1-1.62-.72,2.81,2.81,0,0,1-.68-1.95,3.47,3.47,0,0,1,.68-2.1,2.52,2.52,0,0,1,2.13-1.11,2.41,2.41,0,0,1,1.89.91,4.11,4.11,0,0,1,1,2.79,5.45,5.45,0,0,1-.74,2.79,6.13,6.13,0,0,1-2,2.14,4.16,4.16,0,0,1-2.33.7Zm4.11-4.61a10.41,10.41,0,0,0,.12-1.37,4.71,4.71,0,0,0-.22-1.38,2.57,2.57,0,0,0-.62-1.15,1.27,1.27,0,0,0-.91-.4,1.32,1.32,0,0,0-1,.53,2.4,2.4,0,0,0-.45,1.58,3.57,3.57,0,0,0,.59,2.18,1.29,1.29,0,0,0,1.06.57,2.21,2.21,0,0,0,.73-.15A2.09,2.09,0,0,0,96.16,154.79Z"/><path class="cls-1" d="M105,150.32l-.52,1.13h-2.7l-.59,1.2A4.75,4.75,0,0,1,104,154a2.93,2.93,0,0,1,.88,2.11,3,3,0,0,1-.29,1.31,3.5,3.5,0,0,1-.73,1,3.59,3.59,0,0,1-2.54,1,2.06,2.06,0,0,1-1.18-.27.79.79,0,0,1-.36-.61.44.44,0,0,1,.15-.33.56.56,0,0,1,.39-.14.94.94,0,0,1,.3.05,3.71,3.71,0,0,1,.44.28,1.8,1.8,0,0,0,1,.34,1.91,1.91,0,0,0,1.36-.58,2,2,0,0,0,.59-1.43,2.51,2.51,0,0,0-.53-1.52,3.41,3.41,0,0,0-1.44-1.09,6.14,6.14,0,0,0-2-.34l1.72-3.49Z"/><path class="cls-1" d="M112.83,157.56l-.63,1.73h-5.31v-.24a24.19,24.19,0,0,0,3.3-3.48,4.43,4.43,0,0,0,1-2.47,1.94,1.94,0,0,0-.52-1.4,1.67,1.67,0,0,0-1.26-.55,2,2,0,0,0-1.19.39,2.14,2.14,0,0,0-.77,1.13h-.25a3.08,3.08,0,0,1,.85-1.88,2.42,2.42,0,0,1,1.72-.65,2.53,2.53,0,0,1,1.82.7,2.22,2.22,0,0,1,.74,1.65,3.19,3.19,0,0,1-.32,1.36,8.91,8.91,0,0,1-1.59,2.27c-1.11,1.2-1.79,1.93-2.07,2.17h2.35a5.87,5.87,0,0,0,1,0,1.42,1.42,0,0,0,.52-.21,1.35,1.35,0,0,0,.41-.47Z"/><path class="cls-1" d="M181.87,78.91c-.44,0-.89.06-.92-.39-.92-.39-2.06-3.91-2.12-4.81,0-.44.79-1.4.35-1.37a1.58,1.58,0,0,0-.5-.86,1.65,1.65,0,0,1-.54-1.31c-.45,0-.45,0-.92-.39l-.48-.42c-.48-.42-.51-.86-1-1.28,0-.45-.47-.42-.5-.87a1,1,0,0,1-1-.83c-.44,0-2.32-1.19-2.35-1.63-.56-1.77,3.92-1.63,4.43-.76s-.83.95-.77,1.85c.45,0,.41-.48.86-.51s.86-.51,1.75-.57l.41-.48a1.58,1.58,0,0,0,.86-.51,3.33,3.33,0,0,1,1.72-1,.44.44,0,0,1,.42-.48c.47.42.47.42.5.87a3.63,3.63,0,0,1-2.55,2c-.89.07-1.3.55-2.19.61a.44.44,0,0,1-.41.48s-.42.47,0,.44a.43.43,0,0,0,.47.42,1.64,1.64,0,0,1,1.31-.54l.89-.06c0-.45.41-.48.86-.51.41-.48.41-.48.85-.51s.42-.48.87-.51c.88-.06,1.36.35.95.83a1,1,0,0,1-.83,1l-.89.06c0,.45-.42.48-.86.51l-.89.07-.45,0a1.54,1.54,0,0,1-.85.5.44.44,0,0,0-.42.48l.45,0c.44,0,.91.39,1.36.36a1.58,1.58,0,0,1,.86-.51c.48.41.07.89.51.86,0,0,.47.42.44,0a1.58,1.58,0,0,1-.5-.86c0-.45.86-.51,1.3-.55l.41-.47.45,0a1.65,1.65,0,0,0,.54,1.31c.92.39,2.16-1,2.7.26,0,.45.07.9.1,1.34-.42.49-.83,1-1.76.58-.47-.42-.06-.9-.94-.84l-.45,0c0,.45-.42.48-.39.93-.41.48-1.36-.36-1.81-.32l-.89.06,0,.45-.44,0c-.42.47-.36,1.37.54,1.31.44,0,.41-.48.38-.93l.44,0c.48.42.54,1.31,1.44,1.25a3.35,3.35,0,0,1,.76-1.85c.89-.06.57,1.76,1.49,2.14l.86-.51c.44,0,.38-.92.38-.92l.45,0a.43.43,0,0,0,.47.41L188.62,73s.06.9.1,1.35l0,.45c-.83,1-1.78.12-2.7-.27l-1.34.1a1.64,1.64,0,0,1-1.37-.36l-1.33.09c-.45,0-.45,0-.92-.38l0,.45,0,.44c.47.42.95.84,1,1.29a2,2,0,0,1,.16,2.23A.45.45,0,0,0,181.87,78.91Z"/><path class="cls-1" d="M175.49,77.1c-1.37-.36-1-.83-1.47-1.7,0-.45-.47-.42-.5-.86a1.4,1.4,0,0,0-.51-.87c-.44,0-1.3.54-1.75.57l-.41.48-.9.06c-.85.51-4.06-.62-4.12-1.51.38-.93,1.14-2.78,2-3.29,0,0,.41-.48.44,0a1.64,1.64,0,0,1,.54,1.31c0,.45,0,.45.48.42.5.87.53,1.31,1.39.8l1.34-.09c.35-1.38-2-3-1.68-4.84.44,0,.41-.47.86-.5a1.53,1.53,0,0,1,.51.86c.44,0,.47.42.5.87s.58,1.76.61,2.2c.47.42,1.33-.09,1.77-.12l.9-.06-.48-.42c-.48-.42-.51-.86-1-.83-.07-.9-.13-1.79.76-1.86l.48.42a2.67,2.67,0,0,0,.57,1.76c.48.42.51.87,1,1.28s1,.84,1.4.81c0,.44.57,1.75.16,2.24l-.89.06c0-.45-.48-.42-.51-.87a14,14,0,0,0-2.32-1.18c-.38.92.57,1.75,1.08,2.62a1.38,1.38,0,0,0,.5.86.43.43,0,0,1-.41.48C175.9,76.62,175.46,76.65,175.49,77.1Z"/><path class="cls-1" d="M163.74,58.39a3,3,0,0,1-2.17-1.86,1,1,0,0,1-.87-.93l-.87-.92v-.45c0-.45,0-.89,0-1.34,0-.9.05-1.8.07-2.25s.55-3.57.55-3.57c-.44-.46-1.34,0-1.8.39l-1.34,0a2,2,0,0,1-2.23-.07c-.89,0-1.75-1-2.17-1.86,0-.45-.44-.46-.43-.91-.41-.91.92-.87,1.37-.86.43.47.87.93,1.3,1.39,1.32.48,3.55.55,4.47-.32l0-.45c0-.45,0-.45-.44-.46a7.78,7.78,0,0,0-1.72-2.3l-.43-.46s0-.45,0-.89a.44.44,0,0,1,.45-.44.86.86,0,0,1,1.36-.41c.44,0,.43.46.86.92l.43.46.87.93.9,0c.43.47.42.91,1.3.94a3.48,3.48,0,0,0,1.84-1.74c.48-.89.5-1.79,1.84-1.75a.43.43,0,0,1,.46-.43c.43.46.43.46.88.47a1.64,1.64,0,0,0,.41,1.36c0,.45.43.46.41.91v.45a2.27,2.27,0,0,1-2.28,1.73c-.45,0-.89,0-.91.42-.9.43.87.93.87.93.89,0,2.2,1,1.73,1.84h0c-.45.44,0,.9-.48,1.33s-1.34,0-1.77-.5a1.57,1.57,0,0,0-.88-.47c0-.45-1.32-.93-1.77-.5a1.56,1.56,0,0,0-.48.88c-.47.89-.08,2.7-.12,4,.44.47,0,.9.41,1.36,0,1.35-.06,2.25-.1,3.59a1.68,1.68,0,0,1,.41,1.36Z"/><path class="cls-1" d="M145,40.08c-1.77-.21-4.37-1-5.55-2.46-.39-.5-.72-1.44-1.11-1.94A19,19,0,0,0,137.09,31l0-.44c-.44-.06-.39-.5-.83-.55a2.44,2.44,0,0,1-2.37,1.07,7.56,7.56,0,0,1-4.44-.52c-.39-.5-.83-.55-.78-1a1.58,1.58,0,0,1,.55-.84c.44.05,1.28.61,1.72.66a8.59,8.59,0,0,0,3.7-.92c.5-.39-.67-1.89-.62-2.33-.44-.06.11-.9.6-1.29,1-.79,3,1.7,3.55.42.55-.84.21-1.78.27-2.23-.4-.5-1.18-1.49-.19-2.28l.89.1a17,17,0,0,0,2.16.71l1.77.21c.89.11,2.22.26,2.61.76s.39.5.34.95-.6,1.28-1,1.23l-.44-.06-.05.45c-.45-.05-1.38.29-1.83.24s-.83-.55-1.33-.16l-.05.45a.43.43,0,0,0,.39.49c.83.55,2.16.71,2.5,1.66.78,1-.6,1.28-1,1.23-1.39.29-2.61-.76-3.6,0-.44-.05-.16,1.34.28,1.39.34.95.24,1.84.63,2.34A4.47,4.47,0,0,0,142,35.21a7.69,7.69,0,0,0,2.34,3c-.05.44.83.55.78,1l.39.5A.45.45,0,0,0,145,40.08Z"/><path class="cls-1" d="M82,26.85c-.89,0-1.34,0-1.34-.45-.45-1.8.9-1.8,1.78-1.8a3.44,3.44,0,0,0,1.79-.89.44.44,0,0,0,.45-.45c0-.45-.9-.9-1.34-1.35V21s-.45-.45,0-.45c0-.45.44-.45.89-.45,0-.44.45-.44.89-.89,0-.45.45-.9.9-1.35.44-.9.44-1.8.89-2.69a1.62,1.62,0,0,1,1.34-.45,2,2,0,0,0,1.34-1.35.44.44,0,0,0-.45-.45,1.63,1.63,0,0,1-1.34.45c-.45.45-.89.45-1.34.9a1.38,1.38,0,0,0-.89.45c-.45,0-.89.45-1.79.9-.44.44-1.78.89-2.22,1.34a.44.44,0,0,0-.45.45l-1.34,1.35h-.45l-.45-.45a2.36,2.36,0,0,1-.89-1.8c0-.89,1.79-3.14,2.68-3.14.45-.45.9.45.45.45v.9c.45.45,2.67-.9,2.67-.9.45,0,.45-.45.9-.45-.9,0-.9-.9-1.34-1.35a1.57,1.57,0,0,0-.9-.45.43.43,0,0,0-.44-.44c-.44-.45.89-.9,1.34-1.35a4.82,4.82,0,0,0,2.23-.45c.45,0,.89.45,1.34.9s.89,1.34.44,1.79a.43.43,0,0,1-.44.45A4,4,0,0,0,89.15,12H90c.45,0,.89-.45,1.34-.45.89-.44,1.34.45,1.78.9s.9.9.9,1.35c-.9.45-.9.9-1.79.9H90.49c-.45.45-.45.45-.89.45h-.45c-.45,0,0,.45,0,.89v.45c-.45.45-.89.9-1.34.9-.89.45-1.34,1.35-1.78,1.8l-.45.45c.45,0,2.68-.9,3.12-.45a2.46,2.46,0,0,1-1.34,2.24h-.44c-.45.45,0,.45,0,.9l-.45.45c1.34,0,3.13-.9,4-.45.44,0,.89.45,1.34.9,0,.45,0,1.34-.45,1.34-.45.45-.89,0-1.34,0-.44.45-.89.45-1.78.45-.45,0-.9.45-1.34.45H85.58c-.45,0-.45.45-.89.45s-.9.45-1.34.45A1.64,1.64,0,0,1,82,26.85Z"/><path class="cls-1" d="M83.79,18.77H82.9c0-.45-.45-1.35,0-1.8s.89,0,1.34,0l.89-.45V17c0,.45,0,.45-.44.45v.9C84.24,18.77,84.24,18.77,83.79,18.77Z"/><polygon class="cls-1" points="90.14 52.49 87.87 64.19 75.47 66.18 87.7 68.84 89.79 80.81 92.23 68.61 103.95 66.65 92.13 64.47 90.14 52.49"/><path class="cls-1" d="M26.9,81c-.44,0-.89-.45-1.34-.45-.44.45-.89,0-.89-.44-.45-.45.45-.9.45-1.35,0,0-.45-2.25-.45-2.69-.45-.45-.89-.9-1.34-.9-1.78-1.8-1.78,1.79-3.57,1.34-1.34-.44,0-2.69-.45-3.14-.89-1.35-2.23-.45-3.12-1.35s.45-3.14,1.34-3.58,1.78,0,2.23,0a3.38,3.38,0,0,1,1.34.89c.45.45.89.9,1.34.9.89.9,2.23,1.35,3.12,2.25,0,.44.45.44.9.89v1.35c0,.45.44.9.44,1.35a3.35,3.35,0,0,1,.45,1.79C27.79,78.73,28.24,80.08,26.9,81Z"/><path class="cls-1" d="M27.79,68.41H26.9a6.27,6.27,0,0,0-2.68-.9.43.43,0,0,0-.44-.45c-.45-.45-1.34-.45-1.79-.9l-1.34-1.35h-.89a2,2,0,0,1-2.23-1.34c-.45-.45,0-1.35,0-1.8.44-.45.89-.45,1.34-.89,1.34,0,1.34,1.79,2.23,1.79.45,0,.45-.45.45-.9v-.45a1.42,1.42,0,0,1,1.33-1.34,1.41,1.41,0,0,1,.9.44v.46c.44.89,0,1.79,0,2.24-.45.45-.45.45-.45.9l.89.89a.44.44,0,0,1,.45.45,3.39,3.39,0,0,0,1.79.9h.89a1.68,1.68,0,0,0,.44-1.35c0-.89.45-1.34.45-1.79a1.53,1.53,0,0,0,.89-.45c.45-.45.89,0,1.34,0,.45.45.9.45.9.9,0,1.34-1.79,3.59-2.24,4.49C28.69,68,27.79,68,27.79,68.41Z"/><path class="cls-1" d="M38.11,57.24h-.89c-.45-.45-1.79-1.8-1.34-2.25s1.34,0,1.34-.44c0,0,.89-.9.89-.45V55C38.56,55.89,39,56.79,38.11,57.24Z"/><path class="cls-1" d="M43.91,47.36H43c-.45,0-.45,0-.89-.45H40.79l-.45-.44a4.44,4.44,0,0,1,3.57-2.7.44.44,0,0,0,.45.45c.44.45.89,1.8.44,2.25A1,1,0,0,1,43.91,47.36Z"/><path class="cls-1" d="M29.63,49.61a1.36,1.36,0,0,1-.89-.45.44.44,0,0,1-.45-.45c-.45-.9.89-1.35,1.34-1.8a3.42,3.42,0,0,1,.9-1.79c0-.45.44-.9.44-1.35a.83.83,0,0,0,0-1.34h-.44c-.45.44-1.79.89-1.79-.45V40.63c.44,0,.89-.45,1.34-.9.45,0,.45-.45.89-.9.89-.45,1.78.45,1.78,1.35.9,0,.9-.9,1.35-.9l.44-.45c.45-.45,2.23-2.69,2.68-1.79a.44.44,0,0,1,.44.45c-.44.45-.89.89-.89,1.34-.45.45-.89.45-1.34.9-.89,1.35-2.23,2.25-2.68,3.59-.44.9-.44,1.35-.89,1.8V46A3.44,3.44,0,0,0,31,47.81c-.44.45,0,.9-.44,1.35C30.53,49.61,30.08,49.61,29.63,49.61Z"/><path class="cls-1" d="M42.13,52.75h-.9c-.44,0-2.23,0-2.23-.45s.9-.45.9-.9V51c0-.44-1.34-1.34-1.79-1.34-.89,0-.89.9-1.34.9-.89.44-3.57-2.25-3.57-2.7a4.72,4.72,0,0,0,.9-2.24c.44-.45.44-.9.89-1.8a1.58,1.58,0,0,0,.44-.9c.45-.44.89-.44.89-.89.45-.45.9-1.35,1.34-.9h.45c.45,0,.45,0,.45.45a4.86,4.86,0,0,1-.45,2.24v.9c0,.45.89.45.89,1.35v.45a.43.43,0,0,1-.44.44,19.69,19.69,0,0,1,3.12,2.7.44.44,0,0,0,.45.44,2.77,2.77,0,0,1,.44,1.8,1.58,1.58,0,0,1-.44.9Zm-6.25-4.94a19.62,19.62,0,0,0,.44-2.24h-.44v0C35.43,46,34.54,47.36,35.88,47.81Z"/><path class="cls-1" d="M57.59,26.08l-.45-.45c-.44-.9.45-1.34.9-1.79a1.58,1.58,0,0,1,.44-.9c0-.9-1.34-.45-1.34-.9-.44-.45.45-1.79.45-2.24a3.39,3.39,0,0,0,1.79-.9c.44-.45,1.78,0,1.78.9v1.35h0c.45.44,1.79-1.8,2.68-1.35,0,.45,0,.89-.45.89A2,2,0,0,1,62.05,22a3.49,3.49,0,0,0-1.34.9c-.44,0-.44.45-.89.45A6.54,6.54,0,0,1,57.59,26.08Z"/><path class="cls-1" d="M55.36,37.75c-1.78-.45-1.34-3.14-2.23-3.14l-.45.45a1.58,1.58,0,0,0-.44.9l-.9.45c-.89,0-.89-.9-.89-1.35s0-.9.45-.9c0-.45.44-.45.89-.45a3.36,3.36,0,0,0,.89-1.79c0-.45,0-.45-.44-.9a3.37,3.37,0,0,0-.45-2.25c-.45-.45-.89-.45-.89-.89-.45-.45-.89-.45-.89-.9-.45-.45.44-1.35.44-1.8.45-.89-.44-2.69.45-3.14.44-.45.44-.45.89-.45s.89-.44,1.34-.44a1.58,1.58,0,0,0,.89.44c0,.45.45.9,0,1.8,0,.45-1.34,1.34-1.78,1.79-.45,0-.45.45-.9.45,0,.45-.44.45-.44.9a.44.44,0,0,0,.44.45c.45.45.45.45.9.45v-.9c0-.45.44-.9.44-1.35A1.64,1.64,0,0,1,54,24.73c1.34-.44,1.79,1.35,2.23,2.25v.9c.45.89.89,1.34.89,2.24a1.65,1.65,0,0,1,.45,1.35c.89.9,2.23,3.59,1.79,4.94,0,.44-.9.44-.9.44-.44-.44-.44-.89-.89-1.34s-1.34-.9-1.78-1.8a.43.43,0,0,1,.44-.45l.89.9h.45c0-.45-.45-1.79-.89-1.79v-.45l-.45-.45c-.44.45-.44.45-.44.9l-.89.89v.9c0,.9.89,2.69.44,3.59ZM54,30.57v-.45c0-.45-.89-1.35,0-1.35h.9c0-.45,0-.89-.45-.89,0-.45-.89-1.35-.89-.9-.45,0-.45.45-.45.9v1.34C53.13,29.67,53.58,30.57,54,30.57Z"/><path class="cls-1" d="M60.71,34.16a1.57,1.57,0,0,1-.89-.45v-.9c0-.89-.44-1.34-.44-1.79v-2.7A4.55,4.55,0,0,0,58.93,27a.44.44,0,0,0,.45-.45c.44,0,.89-.45,1.33-.45.45-.9.45-2.24,1.34-2.24,1.79-.9.9,1.34,1.34,2.24a2.46,2.46,0,0,0,1.34,2.24.44.44,0,0,0,.45.45c.44.45,2.68,0,2.68-.45s-.45-1.34-.45-1.79v-.45a.44.44,0,0,1,.45.45c.44,0,.44.45.89.9s.89.89,1.34,1.34c0,.45.44.9,0,1.35,0,.45-.45.45-.9.9a1.38,1.38,0,0,0-.89.45c-.89,0-3.57,0-4.46-.9-.45-.9-.89-1.8-1.34-2.69-.45-.45-.45-.9-.89-.9h-.45c-.89.9,0,2.24,0,3.14.45,1.35.45,3.14-.45,4ZM60.27,31V28.77h-.45v.45A2.71,2.71,0,0,0,60.27,31Z"/><path class="cls-1" d="M118,15.12c-.9,0-2.23-.9-2.23-1.79,0-.45,0-.45.44-.45,0-.45.45-.45.89-.45h2.24a.43.43,0,0,0,.44.45C120.26,13.78,118.92,14.68,118,15.12Z"/><path class="cls-1" d="M108.21,12.88h-.45a2.34,2.34,0,0,1,.9-1.8c.44-.45.44-.45.44-.9.45-.44.89-.89,1.34-.89a1.62,1.62,0,0,1,1.34.45s.89,0,.89.44c.45,0,.45.45.45.9-.45,1.8-1.78.9-3.13.9h-.44C109.1,12.43,108.66,12.88,108.21,12.88Z"/><path class="cls-1" d="M119.37,27.24a3.39,3.39,0,0,1-1.79-.9,3.68,3.68,0,0,1-1.78-2.69c0-.89,0-2.69.44-3.14v-.45h-.44a1.39,1.39,0,0,0-.9.45c-.44.9-.89,1.35-1.34,2.25-.44,0-.44.44-.89.89a1.62,1.62,0,0,1-1.33.45c-.45,0-.9,0-.9-.45-.45-.45,1.34-.89,1.78-.89V22.3c.45-.89.9-1.34,1.34-2.24,0-.45-.44-1.35,0-1.8H114c.89,0,.89.9,1.79.9.44,0,.89-.9,1.78-.9.45,0,.89,0,.89.9,0,0-.89.45-.89.9a6.33,6.33,0,0,0-.89,2.7c0,.44,0,.44.44.89,0,.45,1.34,1.35,1.79.9s.45-.9.89-1.35h.45l.45.45s0,2.69-.45,2.69C120.26,26.79,119.81,26.79,119.37,27.24Z"/><path class="cls-1" d="M113.56,17.37h-.89l-.45-.45v-.45c.45,0,.45,0,.45-.45h4.91c.89,0,1.34-.45,1.79-.45.44-.45.44-.45.89-.45h.45a.86.86,0,0,1,.44,1.35c-.44,0-1.34.45-1.78.45h-2.24a2.64,2.64,0,0,1-1.78.45h-1.79Z"/><path class="cls-1" d="M108.66,25.45h-.45c-.45-.45-1.34-3.59-.45-3.59h0l.45.9c.45-.46.89-2.25.45-2.7a11.42,11.42,0,0,0-2.24.9c-.89.45-1.78,2.69-2.68,2.69V22.3c.45-.44.9-.44,1.35-1.34-.45-.45-.9,0-1.35,0h-.44c-.89-.45,0-2.25.44-2.7s.9.45,1.35.45H106a.43.43,0,0,0,.44-.45,3.33,3.33,0,0,0,.45-2.24c.45-.45.45-1.34.89-1.8,0-.44,0-.44.45-.44.45.44,0,1.34,0,2.24h.89l.45.45H110l.45-1.35a2.23,2.23,0,0,0-1.34-.44v-.46l.45-.44c.89,0,1.79-.45,2.23.44v.9l-.44.45c0,.45-.45,1.35-.45,1.8a1,1,0,0,0-.9.89h.45a.44.44,0,0,1,.45.45v.45c-.45.45-.9.45-.9.9V21c0,.45-.44.9-.44,1.34,0,1.35,0,2.25-.89,3.15Zm-.45-6.74V16.92h-.45a1.65,1.65,0,0,1-.44,1.34v.45Z"/><path class="cls-1" d="M91.18,92.76A50,50,0,0,0,79.1,90.62L79,90l6.8-3.15v.73L80.47,90a83.16,83.16,0,0,1,10.32,1.94A7.61,7.61,0,0,1,91.18,92.76Z"/><polygon class="cls-1" points="128.06 67.27 144.79 59.57 145.2 60.12 87.46 145.35 86.86 144.99 97.16 114.97 98.02 113.69 88.61 142.36 143.72 60.82 127.19 68.55 128.06 67.27"/><path class="cls-1" d="M144.28,110.64,143,105.7l-27.43,0-3.32,4.94,32.05,0Zm-45-4.88-8.38,0c-.38,1.45-1,3.08-1.49,4.88H98c.49-1.75.9-3.39,1.2-4.84Zm-10-.1-39.7,0-1.32,4.88,39.61.07C88.24,109.08,88.78,107.34,89.2,105.66Z"/><path class="cls-1" d="M47.59,97.55c0-13.83,16.79-25.36,39.07-28A29.7,29.7,0,0,0,68.45,103.8H48.76a17.58,17.58,0,0,1-1.17-6.25Zm21.34,8.1a29.49,29.49,0,0,0,2,5H53a23.9,23.9,0,0,1-3.49-5Zm2.7,6.33c.32.56.66,1.11,1,1.64H56c-.62-.53-1.22-1.08-1.78-1.64Zm2,3a29.46,29.46,0,0,0,4.9,5.14h-12A45.7,45.7,0,0,1,57.71,115Zm6.67,6.49A28.13,28.13,0,0,0,84,123.73c-.16.47-.32.93-.48,1.37a67.94,67.94,0,0,1-13.85-3.64Zm4.94,2.79a30.06,30.06,0,0,0,4.35,1.57c-1.54-.13-3.21-.29-4.7-.5.11-.33.25-.74.35-1.07ZM108.34,69.9a70.7,70.7,0,0,1,11.36,2.64l-4,1.83a29.39,29.39,0,0,0-7.39-4.47Zm25.51,9.52c6.93,4.93,11.09,11.24,11.09,18.13a17.44,17.44,0,0,1-1.37,6.75H125.62a29.88,29.88,0,0,0,.84-7.07,30.47,30.47,0,0,0-.6-6l8-11.8Zm9.1,26.23a23.46,23.46,0,0,1-3.41,5H123.28a29.49,29.49,0,0,0,2-5ZM138.27,112c-.56.56-1.16,1.11-1.78,1.64h-15c.35-.53.69-1.08,1-1.64Zm-3.45,3a45.7,45.7,0,0,1-8.76,5.14H115.69a29.46,29.46,0,0,0,4.9-5.14Zm-12,6.49a70.68,70.68,0,0,1-17.35,4.12,29.17,29.17,0,0,0,8.44-4.12Z"/><path class="cls-1" d="M135.43,54.47,76.14,83a31.06,31.06,0,0,1,11.2,3.12l0,0h0c3.06,1.7,5.52,4.3,5.44,8.25v.25h0v.08C92.24,105.24,79.55,141,79.55,141l55.88-86.5ZM92.82,94.38v.25h0C92.81,94.54,92.82,94.46,92.82,94.38Z"/><path class="cls-1" d="M144.61,115l2.18,5.11H105.7l3.62-5.11ZM95.9,120.11H94.27L97.16,115h.44c-.54,1.67-1.08,3.4-1.7,5.15Zm-2.87,0,3.33-5.15-8.29.07c-.5,1.6-.94,3.27-1.55,5.08Zm-7.85,0H47.24L48.33,117l.05-.13L49,115l37.68,0C86.07,116.8,85.75,118.5,85.18,120.11Z"/><path class="cls-1" d="M99.33,32A67.36,67.36,0,1,1,32,99.33,67.49,67.49,0,0,1,99.33,32Zm0,2.49a64.88,64.88,0,1,0,64.88,64.87A65,65,0,0,0,99.33,34.46Z"/><path class="cls-1" d="M99.33,0A99.34,99.34,0,1,1,0,99.33,99.53,99.53,0,0,1,99.33,0Zm0,2.51a96.83,96.83,0,1,0,96.83,96.82A97,97,0,0,0,99.33,2.51Z"/><path class="cls-1" d="M175,122.74l.75-2.16.17.06,0,.12a.87.87,0,0,0,0,.38,1.24,1.24,0,0,0,.15.52,4.48,4.48,0,0,0,.46.69l1.79,2.32,1.52.54a1.29,1.29,0,0,0,.74.12.74.74,0,0,0,.38-.48l.07-.2.16.06-.91,2.63-.16-.06.07-.22a.67.67,0,0,0,0-.64,1.43,1.43,0,0,0-.61-.33l-1.44-.52-3.13.8a6.24,6.24,0,0,0-.7.2,2,2,0,0,0-.42.35.72.72,0,0,0-.14.25l-.16-.06.91-2.65.17.06-.05.14a.9.9,0,0,0,0,.43.36.36,0,0,0,.24.29,1.67,1.67,0,0,0,.67-.07l2.41-.6-1.45-1.88a1.43,1.43,0,0,0-.53-.5.36.36,0,0,0-.25,0,.46.46,0,0,0-.22.13.87.87,0,0,0-.18.35Z"/><path class="cls-1" d="M170.86,132.73l1.37.64-.08.17a1.64,1.64,0,0,0-.57-.14.89.89,0,0,0-.54.17,1.33,1.33,0,0,0-.41.52l-.42.82,4.36,2.3a1.35,1.35,0,0,0,.71.23.76.76,0,0,0,.44-.41l.1-.2.16.08-1.26,2.47-.16-.08.11-.21a.67.67,0,0,0,0-.64,1.35,1.35,0,0,0-.56-.42l-4.36-2.3-.36.71a2.17,2.17,0,0,0-.24.61.91.91,0,0,0,.12.54,1.48,1.48,0,0,0,.51.52l-.08.16-1.3-.78Z"/><path class="cls-1" d="M169.12,146.61l.14.11L167.62,149l-.14-.11.13-.19a.7.7,0,0,0,.16-.61,1.42,1.42,0,0,0-.52-.54L163.91,145a2.52,2.52,0,0,0-.55-.34.4.4,0,0,0-.28,0,.91.91,0,0,0-.35.29l-.14.19-.14-.11,1.64-2.27.14.11-.14.19a.7.7,0,0,0-.15.61q0,.19.51.54l3.34,2.51a2,2,0,0,0,.56.34.41.41,0,0,0,.28,0,.87.87,0,0,0,.35-.28Z"/><path class="cls-1" d="M157.81,151l1.67,1.5-.12.13a2.9,2.9,0,0,0-1-.45,1.53,1.53,0,0,0-.87.08,1.78,1.78,0,0,0-.73.49,1.18,1.18,0,0,0-.31.83.89.89,0,0,0,.3.71.81.81,0,0,0,.53.21,5.15,5.15,0,0,0,1.64-.44,9.73,9.73,0,0,1,1.37-.44,1.75,1.75,0,0,1,.79,0,1.51,1.51,0,0,1,.67.36,1.66,1.66,0,0,1,.57,1.28,2.14,2.14,0,0,1-.57,1.47,2.73,2.73,0,0,1-.38.38c-.08.06-.25.18-.53.35a2.7,2.7,0,0,0-.5.35.25.25,0,0,0-.08.19.63.63,0,0,0,.16.28l-.12.13L158.69,157l.12-.14a2.86,2.86,0,0,0,1,.44,1.51,1.51,0,0,0,.85-.1,2,2,0,0,0,.8-.57,1.35,1.35,0,0,0,.38-.93,1,1,0,0,0-.32-.76,1,1,0,0,0-.45-.22,1.36,1.36,0,0,0-.6,0,11.25,11.25,0,0,0-1.13.36,9.7,9.7,0,0,1-1.33.41,2,2,0,0,1-.8,0,1.4,1.4,0,0,1-.67-.35,1.62,1.62,0,0,1-.54-1.21,2,2,0,0,1,.52-1.37,2.66,2.66,0,0,1,.91-.67,1,1,0,0,0,.34-.21.26.26,0,0,0,.07-.2.59.59,0,0,0-.13-.3Z"/><path class="cls-1" d="M138.86,167.79l1.33,2.21,1.21-.76a1.23,1.23,0,0,0,.54-.54,1.1,1.1,0,0,0-.17-.81l.15-.1,1.17,2-.15.09a2.06,2.06,0,0,0-.43-.45.57.57,0,0,0-.37-.08,1.55,1.55,0,0,0-.56.24l-1.21.76,1.11,1.84a2.15,2.15,0,0,0,.3.43.33.33,0,0,0,.19.06,1,1,0,0,0,.34-.15l.93-.59a2.79,2.79,0,0,0,.64-.49,1.35,1.35,0,0,0,.25-.51,4,4,0,0,0,.05-1.09l.16-.1.37,1.69-4.23,2.66-.09-.15.19-.12a.9.9,0,0,0,.31-.33.43.43,0,0,0,.06-.31,2.27,2.27,0,0,0-.28-.57L138.49,169c-.21-.36-.38-.55-.5-.59a.72.72,0,0,0-.58.14l-.2.12-.09-.15,4.23-2.66.79,1.18-.16.1a1.88,1.88,0,0,0-.55-.48.68.68,0,0,0-.45-.06,1.85,1.85,0,0,0-.61.29Z"/><path class="cls-1" d="M132.1,171.35l.07.17a1,1,0,0,0-.38.41,1.93,1.93,0,0,0-.13.85l.13,6-.16.08-4.42-4.2a4,4,0,0,0-.45-.38.74.74,0,0,0-.36-.09,1.29,1.29,0,0,0-.47.09l-.07-.16,2.41-1.08.07.16a1.17,1.17,0,0,0-.47.38.33.33,0,0,0,0,.32,2,2,0,0,0,.49.6l3,2.85-.1-4.1a2.6,2.6,0,0,0-.1-.81.38.38,0,0,0-.23-.19.89.89,0,0,0-.5,0l-.08,0-.07-.16Z"/><path class="cls-1" d="M121.4,182.25l0,.17-2.67.71,0-.17.23-.06a.7.7,0,0,0,.5-.38,1.55,1.55,0,0,0-.07-.75l-1-4.1a2.24,2.24,0,0,0-.23-.62.42.42,0,0,0-.23-.15.9.9,0,0,0-.46,0l-.22.06,0-.17,2.67-.72,0,.17-.22.07a.67.67,0,0,0-.5.37,1.43,1.43,0,0,0,.07.75l1,4.11a2.13,2.13,0,0,0,.22.62.42.42,0,0,0,.24.15.86.86,0,0,0,.45,0Z"/><path class="cls-1" d="M104.27,178.22,106,178l4.45,4.42-.42-3.76a1.35,1.35,0,0,0-.21-.73.72.72,0,0,0-.58-.14l-.22,0,0-.18,2.23-.27,0,.18-.23,0a.66.66,0,0,0-.55.32,1.49,1.49,0,0,0,0,.71l.61,5.5-.17,0-4.8-4.75.45,4a1.27,1.27,0,0,0,.21.73.7.7,0,0,0,.57.14l.23,0,0,.18-2.22.26,0-.17.22,0a.66.66,0,0,0,.55-.32,1.49,1.49,0,0,0,0-.71l-.5-4.54a2.45,2.45,0,0,0-.47-.38,1.57,1.57,0,0,0-.45-.15,1.21,1.21,0,0,0-.42,0Z"/><path class="cls-1" d="M96.37,178.51v-.18l2.27,0v.18h-.24a.64.64,0,0,0-.6.31,1.69,1.69,0,0,0-.11.69l-.07,2.66a5.14,5.14,0,0,1-.23,1.53,2,2,0,0,1-.78.92,2.63,2.63,0,0,1-1.54.35,2.85,2.85,0,0,1-1.59-.41,2.07,2.07,0,0,1-.75-1,5.83,5.83,0,0,1-.11-1.62l.07-2.56a1.36,1.36,0,0,0-.14-.8.65.65,0,0,0-.53-.2h-.24v-.18l2.77.07v.18h-.25a.67.67,0,0,0-.57.24,1.53,1.53,0,0,0-.14.73l-.07,2.86a6.94,6.94,0,0,0,0,.87,2.06,2.06,0,0,0,.23.78,1.45,1.45,0,0,0,.51.47,1.73,1.73,0,0,0,.83.19,2.21,2.21,0,0,0,1.13-.25,1.48,1.48,0,0,0,.7-.7,4,4,0,0,0,.22-1.48l.07-2.66a1.42,1.42,0,0,0-.11-.77.72.72,0,0,0-.55-.23Z"/><path class="cls-1" d="M75.93,174.92l-.48,2-.16-.05a2.75,2.75,0,0,0-.26-1.31,2,2,0,0,0-1.22-1,2,2,0,0,0-2.08.34,3.59,3.59,0,0,0-1.13,1.72,4.06,4.06,0,0,0-.19,1.74,2.53,2.53,0,0,0,.53,1.38,2.2,2.2,0,0,0,1,.72,2.28,2.28,0,0,0,.68.13,2.3,2.3,0,0,0,.69-.05l.59-1.8a1.73,1.73,0,0,0,.13-.64.47.47,0,0,0-.14-.29,1.21,1.21,0,0,0-.49-.25l.06-.18,2.36.8-.06.18-.11,0a.5.5,0,0,0-.56.08,1.62,1.62,0,0,0-.31.63l-.63,1.91A5.1,5.1,0,0,1,73,181a4.82,4.82,0,0,1-1.17-.25,3.44,3.44,0,0,1-2.31-2.06,3.37,3.37,0,0,1,0-2.24,3.53,3.53,0,0,1,.91-1.45,3.48,3.48,0,0,1,1.71-1,3.1,3.1,0,0,1,1.71.14,2.91,2.91,0,0,1,.59.26,4.63,4.63,0,0,1,.69.5,1.35,1.35,0,0,0,.31.21.18.18,0,0,0,.17,0,.65.65,0,0,0,.18-.29Z"/><path class="cls-1" d="M58.66,167.38l1.56.79,1.37,6.19L63.25,171a1.44,1.44,0,0,0,.21-.74.74.74,0,0,0-.41-.43l-.2-.1.08-.16,2,1-.08.16-.2-.1a.63.63,0,0,0-.63,0,1.45,1.45,0,0,0-.4.59l-2.42,5-.15-.08-1.49-6.66L57.79,173a1.41,1.41,0,0,0-.21.73.72.72,0,0,0,.41.44l.2.1-.08.16-2-1,.08-.16.2.1a.65.65,0,0,0,.63,0,1.39,1.39,0,0,0,.4-.58l2-4.09a3.39,3.39,0,0,0-.19-.59,1.64,1.64,0,0,0-.29-.37,1.61,1.61,0,0,0-.36-.23Z"/><path class="cls-1" d="M38.88,155,41,157.14l1.28-1.34a2.6,2.6,0,0,0,.42-.52.48.48,0,0,0,0-.29.85.85,0,0,0-.23-.39l-.16-.17.12-.13,2,2-.12.13-.16-.16a1,1,0,0,0-.39-.23.47.47,0,0,0-.31,0,2.61,2.61,0,0,0-.47.42l-2.91,3a2,2,0,0,0-.41.51.41.41,0,0,0,0,.29,1,1,0,0,0,.23.39l.17.17-.13.12-2-2,.12-.12.17.16a.7.7,0,0,0,.57.24,1.43,1.43,0,0,0,.6-.45l1.37-1.43-2.13-2.13-1.38,1.43a2.38,2.38,0,0,0-.4.51.36.36,0,0,0,0,.29.76.76,0,0,0,.22.39l.17.17-.12.13-2-2,.12-.12.16.16a.68.68,0,0,0,.58.24,1.49,1.49,0,0,0,.6-.45l2.9-3a2.34,2.34,0,0,0,.42-.52.48.48,0,0,0,0-.29,1,1,0,0,0-.23-.39l-.16-.17.12-.12,2,2-.13.13-.17-.17a.87.87,0,0,0-.38-.23.42.42,0,0,0-.31,0,2.38,2.38,0,0,0-.48.41Z"/><path class="cls-1" d="M30.65,150.86l-.14.11-1.64-2.26.14-.1.14.18a.7.7,0,0,0,.53.34,1.43,1.43,0,0,0,.66-.36l3.34-2.53a2.46,2.46,0,0,0,.48-.44.52.52,0,0,0,.05-.29,1,1,0,0,0-.17-.42l-.14-.19.14-.11,1.64,2.26-.14.1L35.4,147a.65.65,0,0,0-.52-.32,1.33,1.33,0,0,0-.66.34l-3.34,2.54a2.18,2.18,0,0,0-.48.44.45.45,0,0,0,0,.29.86.86,0,0,0,.16.42Z"/><path class="cls-1" d="M28.88,136l-2.17,1.37.74,1.22c.19.32.36.51.52.55a1,1,0,0,0,.8-.17l.09.15L27,140.29l-.09-.15a2.62,2.62,0,0,0,.45-.44.59.59,0,0,0,.07-.38,1.38,1.38,0,0,0-.23-.57l-.74-1.23-1.8,1.14a2,2,0,0,0-.43.31.28.28,0,0,0-.05.2.88.88,0,0,0,.14.34l.57.94a2.76,2.76,0,0,0,.48.65,1.07,1.07,0,0,0,.5.25,3.52,3.52,0,0,0,1.07.05l.1.16-1.66.39-2.6-4.3.15-.1.12.2a.86.86,0,0,0,.32.31.37.37,0,0,0,.3.06,2.3,2.3,0,0,0,.56-.28l3.56-2.25c.35-.21.55-.38.58-.51a.73.73,0,0,0-.13-.59l-.12-.2.15-.09,2.59,4.3-1.16.82-.1-.16a2.45,2.45,0,0,0,.48-.57.9.9,0,0,0,.06-.47,2.21,2.21,0,0,0-.29-.61Z"/><path class="cls-1" d="M22.36,128.68a2.14,2.14,0,0,1-.05,1.12,1.45,1.45,0,0,1-.84.84,1.55,1.55,0,0,1-1,.05,1.78,1.78,0,0,1-.88-.53,5.16,5.16,0,0,1-.81-1.46l-1.15-2.88.17-.06.09.22a.68.68,0,0,0,.46.46,1.59,1.59,0,0,0,.71-.17L23,124.7a1.35,1.35,0,0,0,.67-.42.7.7,0,0,0,0-.6l-.09-.23.17-.06L24.76,126a5.58,5.58,0,0,1,.37,1.23,2.17,2.17,0,0,1-.13,1.18,1.46,1.46,0,0,1-.84.81,1.48,1.48,0,0,1-1.8-.56Zm-.7-2.46a5.37,5.37,0,0,0,.28.88q.46,1.16,1.17,1.26a1.23,1.23,0,0,0,.71-.08,1.18,1.18,0,0,0,.78-1,2.33,2.33,0,0,0-.17-1.27,3.28,3.28,0,0,0-.42-.77l-2.35.93Zm-2.91,1.17a5.36,5.36,0,0,0,.29,1.08,2.21,2.21,0,0,0,.74,1,1.18,1.18,0,0,0,1.2.15,1.34,1.34,0,0,0,.87-1.31,2.93,2.93,0,0,0-.24-1.15,5.11,5.11,0,0,0-.36-.78Z"/><path class="cls-1" d="M49.58,166.67l-2.08-1.46-1,.58a1.93,1.93,0,0,0-.47.37c-.13.2,0,.46.39.78l-.11.14-1.68-1.19.1-.14a1.15,1.15,0,0,0,.54.15,3,3,0,0,0,1-.46l5-3.07.14.1-1.29,5.77a3.13,3.13,0,0,0-.1.84,1,1,0,0,0,.4.69l-.1.15-2.12-1.5.11-.14c.37.24.63.26.78.05a2.15,2.15,0,0,0,.23-.66l.22-1Zm.09-.37.63-2.81L47.83,165Z"/><path class="cls-1" d="M156,162.88,154.66,164l-3.68-.85-.31.26-.21.19,1.25,1.43c.27.31.47.48.6.49a.68.68,0,0,0,.56-.2l.19-.17.12.14-2.12,1.84-.12-.13.19-.16a.65.65,0,0,0,.27-.6,1.65,1.65,0,0,0-.39-.6l-2.79-3.2c-.27-.31-.47-.48-.61-.49a.68.68,0,0,0-.56.21l-.18.16-.12-.14,1.8-1.57a7.65,7.65,0,0,1,1-.78,1.94,1.94,0,0,1,1.24-.25,1.49,1.49,0,0,1,.9.52,1.7,1.7,0,0,1-.12,2.33l2.26.53a3.55,3.55,0,0,0,1,.13,1.91,1.91,0,0,0,1-.38l.11.14Zm-5.73.52.11-.09.1-.09a2.45,2.45,0,0,0,.77-1.09,1.24,1.24,0,0,0-.29-1.24,1.32,1.32,0,0,0-.95-.51,1.43,1.43,0,0,0-1,.38,5.44,5.44,0,0,0-.51.57Z"/></g></g></svg>